<ttFont>
<head>
    <!-- Most of this table will be recalculated by the compiler -->
    <tableVersion value="1.0"/>
    <fontRevision value="2.00299"/>
    <checkSumAdjustment value="0xdeaf679a"/>
    <magicNumber value="0x5f0f3cf5"/>
    <flags value="00001000 00000011"/>
    <unitsPerEm value="1000"/>
    <created value="Wed Jul 24 23:19:32 2024"/>
    <modified value="Wed Mar 25 22:29:26 2026"/>
    <xMin value="-104"/>
    <yMin value="-271"/>
    <xMax value="1108"/>
    <yMax value="880"/>
    <macStyle value="00000000 00000000"/>
    <lowestRecPPEM value="3"/>
    <fontDirectionHint value="2"/>
    <indexToLocFormat value="0"/>
    <glyphDataFormat value="0"/>
  </head>
        <CharString name=".notdef" fdSelectIndex="3">
          100 -120 rmoveto
          800 1000 -800 hlineto
          400 -459 rmoveto
          -318 409 rlineto
          636 hlineto
          -286 -450 rmoveto
          318 409 rlineto
          -818 vlineto
          -668 -41 rmoveto
          318 409 318 -409 rlineto
          -668 859 rmoveto
          318 -409 -318 -409 rlineto
        </CharString>
        <CharString name="A" fdSelectIndex="6">
          14 hmoveto
          228 34 hlineto
          -109 15 -19 0 -100 -15 rlineto
          68 -34 rmoveto
          53 hlineto
          197 633 3 14 -21 0 206 -647 173 0 -256 750 rlineto
          -104 hlineto
          -139 -513 rmoveto
          342 hlineto
          -9 35 rlineto
          -324 hlineto
          205 -272 rmoveto
          341 35 hlineto
          -143 15 -62 0 -136 -15 rlineto
        </CharString>
        <CharString name="B" fdSelectIndex="6">
          41 hmoveto
          177 50 -16 hlineto
          -161 -16 rlineto
          89 -34 rmoveto
          174 hlineto
          -4 120 0 122 134 vvcurveto
          22 vlineto
          120 0 115 4 114 vhcurveto
          -174 hlineto
          3 -116 0 -115 -116 vvcurveto
          -36 vlineto
          -123 0 -122 -3 -119 vhcurveto
          88 hmoveto
          140 hlineto
          270 71 110 98 112 -85 71 -213 12 hvcurveto
          -2 -10 rlineto
          197 22 59 74 83 vvcurveto
          101 -70 74 -192 vhcurveto
          -175 -38 131 hlineto
          101 42 -52 -90 -101 -51 -57 -102 hvcurveto
          -121 -36 129 hlineto
          121 57 -52 -116 -110 -65 -58 -107 hvcurveto
          -135 hlineto
          -177 676 rmoveto
          161 -15 rlineto
          16 49 -177 hlineto
        </CharString>
        <CharString name="C" fdSelectIndex="6">
          441 -20 rmoveto
          94 72 23 36 61 hvcurveto
          -4 180 -59 0 -61 -211 81 28 rlineto
          37 vlineto
          -39 -54 -43 -15 -54 hhcurveto
          -144 -109 107 247 246 109 110 140 56 43 -15 -34 50 hvcurveto
          33 vlineto
          -83 28 62 -213 59 0 4 182 rlineto
          36 -64 -61 21 -94 hhcurveto
          -220 -179 -131 -270 -264 175 -122 223 hvcurveto
        </CharString>
        <CharString name="D" fdSelectIndex="6">
          41 hmoveto
          177 50 -16 hlineto
          -161 -16 rlineto
          89 -34 rmoveto
          176 hlineto
          -3 117 0 118 125 vvcurveto
          33 vlineto
          121 0 118 3 115 vhcurveto
          -176 hlineto
          3 -117 0 -117 -120 vvcurveto
          -33 vlineto
          -128 0 -118 -3 -114 vhcurveto
          88 hmoveto
          133 hlineto
          252 153 142 234 230 -143 141 -245 hvcurveto
          -150 -38 135 hlineto
          143 86 -116 -219 -212 -86 -125 -147 hvcurveto
          -131 hlineto
          -177 676 rmoveto
          161 -15 rlineto
          16 49 -177 hlineto
        </CharString>
        <CharString name="E" fdSelectIndex="6">
          41 hmoveto
          177 50 -16 hlineto
          -161 -16 rlineto
          89 -34 rmoveto
          176 hlineto
          -3 117 0 118 125 vvcurveto
          31 vlineto
          123 0 118 3 115 vhcurveto
          -176 hlineto
          3 -117 0 -117 -118 vvcurveto
          -44 vlineto
          -119 0 -118 -3 -114 vhcurveto
          88 hmoveto
          416 hlineto
          -2 207 -56 0 -57 -206 86 38 rlineto
          -387 hlineto
          324 vmoveto
          249 36 -249 hlineto
          236 -136 rmoveto
          50 242 -50 hlineto
          -16 -110 rlineto
          -21 vlineto
          -397 339 rmoveto
          161 -15 rlineto
          16 49 -177 hlineto
          513 -199 rmoveto
          58 hlineto
          1 199 rlineto
          -395 -39 365 hlineto
          -84 39 rlineto
        </CharString>
        <CharString name="F" fdSelectIndex="6">
          41 hmoveto
          371 34 hlineto
          -162 16 -48 0 -161 -16 rlineto
          89 -34 rmoveto
          176 hlineto
          -3 117 0 118 125 vvcurveto
          31 vlineto
          123 0 118 3 115 vhcurveto
          -176 hlineto
          3 -117 0 -117 -118 vvcurveto
          -44 vlineto
          -119 0 -118 -3 -114 vhcurveto
          88 363 rmoveto
          251 36 -251 hlineto
          237 -144 rmoveto
          50 250 -50 hlineto
          -15 -107 rlineto
          -31 vlineto
          -399 346 rmoveto
          161 -15 rlineto
          16 49 -177 hlineto
          521 -199 rmoveto
          57 hlineto
          2 199 rlineto
          -403 -39 373 hlineto
          -86 39 rlineto
        </CharString>
        <CharString name="G" fdSelectIndex="6">
          441 -20 rmoveto
          95 71 20 46 78 hvcurveto
          49 vlineto
          98 2 87 2 87 vhcurveto
          -168 hlineto
          2 -92 2 -85 -90 vvcurveto
          -91 vlineto
          56 31 rlineto
          -14 -39 -39 -8 -43 hhcurveto
          -134 -105 133 223 240 109 115 140 57 40 -16 -43 55 hvcurveto
          42 vlineto
          -83 31 60 -213 62 0 4 183 rlineto
          34 -62 -69 20 -86 hhcurveto
          -241 -164 -150 -241 -248 161 -148 237 hvcurveto
          -25 353 rmoveto
          139 -17 69 0 126 17 rlineto
          34 -334 vlineto
        </CharString>
        <CharString name="H" fdSelectIndex="6">
          41 hmoveto
          346 34 hlineto
          -160 16 -31 0 -155 -16 rlineto
          87 -34 rmoveto
          177 hlineto
          -4 117 0 118 130 vvcurveto
          30 vlineto
          119 0 118 4 115 vhcurveto
          -177 hlineto
          3 -117 0 -117 -118 vvcurveto
          -44 vlineto
          -119 0 -118 -3 -114 vhcurveto
          88 361 rmoveto
          438 38 -438 hlineto
          266 -399 rmoveto
          347 34 hlineto
          -158 16 -30 0 -159 -16 rlineto
          83 -34 rmoveto
          177 hlineto
          -3 117 0 118 116 vvcurveto
          44 vlineto
          119 0 118 3 115 vhcurveto
          -177 hlineto
          4 -117 0 -117 -118 vvcurveto
          -30 vlineto
          -133 0 -118 -4 -114 vhcurveto
          -524 713 rmoveto
          155 -15 31 0 160 15 rlineto
          34 -346 vlineto
          441 -34 rmoveto
          159 -15 30 0 158 15 rlineto
          34 -347 vlineto
        </CharString>
        <CharString name="I" fdSelectIndex="6">
          41 hmoveto
          354 34 hlineto
          -162 16 -31 0 -161 -16 rlineto
          89 -34 rmoveto
          177 hlineto
          -3 117 0 118 117 vvcurveto
          43 vlineto
          119 0 118 3 115 vhcurveto
          -177 hlineto
          4 -117 0 -117 -118 vvcurveto
          -44 vlineto
          -119 0 -118 -4 -114 vhcurveto
          -89 713 rmoveto
          161 -15 31 0 162 15 rlineto
          34 -354 vlineto
        </CharString>
        <CharString name="J" fdSelectIndex="6">
          74 -162 rmoveto
          57 63 22 65 54 hvcurveto
          47 57 22 67 152 vvcurveto
          203 vlineto
          116 0 116 4 111 vhcurveto
          -170 hlineto
          3 -324 1 -125 -90 vvcurveto
          -148 4 -103 -17 -91 vhcurveto
          -8 15 6 vlineto
          -46 57 rlineto
          39 -35 -18 7 -35 hhcurveto
          -37 -28 -16 -44 -9 hvcurveto
          -49 7 43 -20 75 hhcurveto
          -31 875 rmoveto
          161 -15 42 0 163 15 rlineto
          34 -366 vlineto
        </CharString>
        <CharString name="K" fdSelectIndex="6">
          130 hmoveto
          169 hlineto
          -3 117 0 113 100 vvcurveto
          65 vlineto
          119 0 118 3 115 vhcurveto
          -169 hlineto
          3 -117 0 -117 -118 vvcurveto
          -44 vlineto
          -119 0 -118 -3 -114 vhcurveto
          -89 hmoveto
          335 34 hlineto
          -144 16 -30 0 -161 -16 rlineto
          679 vmoveto
          161 -15 30 0 155 15 rlineto
          34 -346 vlineto
          424 -747 rmoveto
          318 34 hlineto
          -144 16 -25 0 -149 -16 rlineto
          19 679 rmoveto
          116 -16 31 1 115 15 rlineto
          34 -262 vlineto
          -274 -560 rmoveto
          470 560 -55 0 -369 -456 -26 -34 rlineto
          -22 hlineto
          348 -257 rmoveto
          185 hlineto
          -275 509 -107 -125 rlineto
        </CharString>
        <CharString name="L" fdSelectIndex="6">
          41 hmoveto
          177 hlineto
          1 50 -17 0 -160 -16 rlineto
          88 -34 rmoveto
          176 hlineto
          -3 117 0 118 111 vvcurveto
          65 vlineto
          103 0 118 3 115 vhcurveto
          -176 hlineto
          3 -116 0 -118 -118 vvcurveto
          -71 vlineto
          -92 0 -118 -3 -114 vhcurveto
          88 hmoveto
          401 hlineto
          -2 224 -55 0 -59 -222 85 37 rlineto
          -369 hlineto
          -178 674 rmoveto
          161 -15 38 0 163 15 rlineto
          34 -362 vlineto
        </CharString>
        <CharString name="M" fdSelectIndex="6">
          24 hmoveto
          271 34 hlineto
          -123 16 -24 0 -124 -16 rlineto
          16 679 rmoveto
          142 -15 rlineto
          16 49 -158 hlineto
          93 -747 rmoveto
          49 346 hlineto
          -6 401 rlineto
          -39 hlineto
          287 -747 rmoveto
          52 hlineto
          246 665 13 35 rlineto
          32 47 -58 hlineto
          -205 -549 -7 -19 28 0 -212 568 rlineto
          -163 -47 7 hlineto
          464 -700 rmoveto
          352 34 hlineto
          -162 16 -29 0 -161 -16 rlineto
          87 -34 rmoveto
          176 hlineto
          -4 114 0 118 119 vvcurveto
          44 vlineto
          118 0 118 4 116 vhcurveto
          -168 hlineto
          -4 -420 -2 -92 2 -118 -4 -117 rlinecurve
          87 698 rmoveto
          17 hlineto
          158 15 rlineto
          34 -175 vlineto
        </CharString>
        <CharString name="N" fdSelectIndex="6">
          35 hmoveto
          277 34 hlineto
          -141 16 -31 0 -105 -16 rlineto
          98 -34 rmoveto
          52 230 hlineto
          -14 488 rlineto
          -38 hlineto
          381 -5 rmoveto
          143 -15 30 0 105 15 rlineto
          34 -278 vlineto
          91 -749 rmoveto
          88 749 -44 -269 hlineto
          4 -296 20 7 -386 558 rlineto
          -246 -34 hlineto
          76 -8 39 -59 3 -4 rlineto
        </CharString>
        <CharString name="O" fdSelectIndex="6">
          398 -20 rmoveto
          189 165 134 260 259 -166 134 -188 -188 -167 -135 -258 -261 167 -133 188 hvcurveto
          38 vmoveto
          -122 -55 150 206 204 55 151 122 122 54 -151 -204 -206 -54 -150 -122 hvcurveto
        </CharString>
        <CharString name="P" fdSelectIndex="6">
          41 hmoveto
          371 34 hlineto
          -162 16 -48 0 -161 -16 rlineto
          89 -34 rmoveto
          176 hlineto
          -3 117 0 116 92 vvcurveto
          70 vlineto
          119 0 118 3 115 vhcurveto
          -176 hlineto
          3 -117 0 -117 -118 vvcurveto
          -44 vlineto
          -119 0 -118 -3 -114 vhcurveto
          88 299 rmoveto
          123 hlineto
          238 86 101 125 141 -92 81 -229 hvcurveto
          -126 -38 126 hlineto
          106 56 -62 -121 -112 -54 -77 -115 hvcurveto
          -119 hlineto
          -177 376 rmoveto
          161 -15 rlineto
          16 49 -177 hlineto
        </CharString>
        <CharString name="Q" fdSelectIndex="6">
          560 -230 rmoveto
          54 53 14 23 40 hvcurveto
          -12 29 rlineto
          -13 -28 -22 -3 -29 hhcurveto
          -96 -59 71 114 14 hvcurveto
          -162 -8 hlineto
          -122 79 -105 168 vhcurveto
          -162 210 rmoveto
          189 165 134 260 259 -166 134 -188 -188 -167 -135 -258 -261 167 -133 188 hvcurveto
          38 vmoveto
          -122 -55 150 206 204 55 151 122 122 54 -151 -204 -206 -54 -150 -122 hvcurveto
        </CharString>
        <CharString name="R" fdSelectIndex="6">
          41 hmoveto
          354 34 hlineto
          -160 16 -33 0 -161 -16 rlineto
          89 -34 rmoveto
          174 hlineto
          -4 117 0 118 121 vvcurveto
          29 vlineto
          131 0 116 4 115 vhcurveto
          -174 hlineto
          3 -117 0 -117 -118 vvcurveto
          -44 vlineto
          -119 0 -118 -3 -114 vhcurveto
          515 -15 rmoveto
          50 28 5 10 41 hvcurveto
          34 vlineto
          -168 11 85 -36 -37 195 -20 114 -44 56 -185 7 rlinecurve
          -12 vlineto
          208 12 70 86 92 vvcurveto
          119 -96 69 -175 vhcurveto
          -184 -38 141 hlineto
          101 53 -54 -99 -91 -43 -75 -112 hvcurveto
          -138 -37 128 hlineto
          77 24 -40 -82 14 hvcurveto
          29 -138 rlineto
          -81 10 51 -27 92 hhcurveto
          -604 728 rmoveto
          161 -15 rlineto
          16 49 -177 hlineto
        </CharString>
        <CharString name="S" fdSelectIndex="6">
          284 -20 rmoveto
          188 102 91 133 113 -55 60 -150 67 hvcurveto
          -52 24 rlineto
          -71 32 -38 37 69 vvcurveto
          75 58 44 87 54 31 -16 -46 59 vhcurveto
          -10 44 -76 31 58 -192 58 0 8 164 rlineto
          36 -53 -71 21 -79 hhcurveto
          -163 -110 -77 -135 -120 71 -67 134 -61 hvcurveto
          48 -21 rlineto
          80 -36 28 -35 -67 vvcurveto
          -78 -54 -47 -99 -66 -42 11 45 -66 vhcurveto
          14 -40 70 -29 -61 202 -58 0 -7 -172 rlineto
          -39 60 91 -21 82 hhcurveto
        </CharString>
        <CharString name="T" fdSelectIndex="6">
          169 hmoveto
          377 34 hlineto
          -168 16 -46 0 -163 -16 rlineto
          100 -34 rmoveto
          176 hlineto
          -3 117 0 118 117 vvcurveto
          43 vlineto
          119 0 118 3 115 vhcurveto
          -176 hlineto
          3 -117 0 -117 -118 vvcurveto
          -44 vlineto
          -119 0 -118 -3 -114 vhcurveto
          -246 531 rmoveto
          59 hlineto
          61 216 -81 -39 589 0 -80 39 62 -216 58 0 -4 216 rlineto
          -660 hlineto
        </CharString>
        <CharString name="U" fdSelectIndex="6">
          417 -20 rmoveto
          178 97 104 230 3 hvcurveto
          4 433 -52 0 4 -431 rlineto
          -181 2 -67 -73 -116 hhcurveto
          -115 -60 67 183 hvcurveto
          94 vlineto
          114 0 114 2 113 vhcurveto
          -176 hlineto
          4 -114 0 -115 -112 vvcurveto
          -109 vlineto
          -236 120 -81 172 vhcurveto
          -381 733 rmoveto
          162 -15 30 0 164 15 rlineto
          34 -356 vlineto
          497 -34 rmoveto
          124 -16 32 0 113 16 rlineto
          34 -269 vlineto
        </CharString>
        <CharString name="V" fdSelectIndex="6">
          320 -2 rmoveto
          92 hlineto
          263 749 -59 0 -190 -595 -5 -14 16 0 -199 609 rlineto
          -182 hlineto
          -50 -34 rmoveto
          157 -15 36 0 161 18 rlineto
          31 -354 vlineto
          488 -31 rmoveto
          125 -18 15 0 106 19 rlineto
          30 -246 vlineto
        </CharString>
        <CharString name="W" fdSelectIndex="6">
          284 -2 rmoveto
          93 hlineto
          173 578 4 14 -20 0 179 -592 93 0 224 749 -58 0 -161 -590 -3 -17 18 0 -171 607 -102 0 -168 -587 -4 -15 18 0 -155 602 rlineto
          -181 hlineto
          -54 -34 rmoveto
          152 -15 35 0 151 15 rlineto
          34 -338 vlineto
          437 -34 rmoveto
          126 -15 65 0 137 15 rlineto
          34 -328 vlineto
          421 -34 rmoveto
          106 -15 29 0 106 15 rlineto
          34 -241 vlineto
        </CharString>
        <CharString name="X" fdSelectIndex="6">
          10 hmoveto
          243 34 hlineto
          -106 16 -26 0 -111 -16 rlineto
          57 -34 rmoveto
          60 hlineto
          213 347 20 35 6 0 -29 19 rlineto
          33 -401 rmoveto
          357 34 hlineto
          -148 16 -49 0 -160 -16 rlineto
          32 361 rmoveto
          232 352 -55 0 -184 -303 -19 -34 rlineto
          -6 hlineto
          123 -410 rmoveto
          187 hlineto
          -434 747 rlineto
          -187 hlineto
          -40 -34 rmoveto
          148 -15 53 0 148 15 rlineto
          34 -349 vlineto
          438 -34 rmoveto
          102 -14 27 0 109 14 rlineto
          34 -238 vlineto
        </CharString>
        <CharString name="Y" fdSelectIndex="6">
          169 hmoveto
          376 34 hlineto
          -167 16 -46 0 -163 -16 rlineto
          100 -34 rmoveto
          175 hlineto
          -2 105 0 60 182 vvcurveto
          -170 hlineto
          -184 0 -59 -3 -104 vhcurveto
          24 250 rmoveto
          113 hlineto
          244 497 -56 0 -182 -399 -8 -18 30 0 -192 417 rlineto
          -193 hlineto
          -34 -34 rmoveto
          159 -15 47 0 140 15 rlineto
          34 -346 vlineto
          460 -34 rmoveto
          110 -15 25 0 99 15 rlineto
          34 -234 vlineto
        </CharString>
        <CharString name="Z" fdSelectIndex="6">
          25 hmoveto
          579 hlineto
          3 223 -54 0 -65 -213 40 29 rlineto
          -327 29 hlineto
          -8 -56 407 687 rlineto
          48 -551 vlineto
          -9 -216 62 0 55 205 -39 -28 rlineto
          305 -17 hlineto
          10 42 -408 -685 rlineto
        </CharString>
        <CharString name="a" fdSelectIndex="6">
          185 -17 rmoveto
          84 38 35 62 56 hvcurveto
          41 hlineto
          -19 56 rlineto
          -71 -63 -33 -14 -26 hhcurveto
          -45 -30 29 60 73 39 46 65 28 hvcurveto
          30 11 58 15 54 14 rrcurveto
          26 vlineto
          -53 -13 -78 -19 -50 -15 rrcurveto
          -163 -45 -51 -51 -91 vvcurveto
          -84 60 -52 86 vhcurveto
          286 1 rmoveto
          65 38 23 55 26 hvcurveto
          -18 13 rlineto
          -30 -19 -11 -8 -15 hhcurveto
          -19 -10 13 38 hvcurveto
          269 vlineto
          145 -59 61 -142 -155 -87 -60 -93 -9 vhcurveto
          -34 9 25 -18 36 hhcurveto
          38 34 26 69 3 hvcurveto
          7 76 -72 -24 rlineto
          17 50 32 6 32 hhcurveto
          76 24 -31 -104 hvcurveto
          -302 vlineto
          -66 10 38 -41 73 hhcurveto
        </CharString>
        <CharString name="b" fdSelectIndex="6">
          36 hmoveto
          204 -15 26 91 0 393 -3 10 0 177 3 161 -13 9 -222 -43 0 -27 73 -7 rlineto
          -511 vlineto
          -57 -1 -86 -1 -59 vhcurveto
          -66 -5 rlineto
          384 -48 rmoveto
          137 97 128 164 188 -97 100 -125 -77 -69 -35 -76 -56 hvcurveto
          -23 hlineto
          14 -29 rlineto
          65 59 34 6 38 hhcurveto
          75 55 -59 -156 -183 -63 -42 -70 -36 -31 13 37 -33 hvcurveto
          -21 -13 rlineto
          11 hlineto
          -72 47 62 -36 72 hhcurveto
        </CharString>
        <CharString name="c" fdSelectIndex="6">
          314 -17 rmoveto
          113 68 41 92 49 hvcurveto
          -19 13 rlineto
          -47 -34 -47 -28 -58 hhcurveto
          -110 -70 85 147 154 65 88 89 34 30 -9 -20 37 hvcurveto
          -77 46 14 -96 rlineto
          -74 3 35 -24 42 hhcurveto
          34 22 17 36 11 hvcurveto
          89 -12 -84 70 -110 hhcurveto
          -166 -138 -103 -196 -182 127 -99 152 hvcurveto
        </CharString>
        <CharString name="colon" fdSelectIndex="6">
          170 -17 rmoveto
          52 40 41 50 51 -40 42 -52 -52 -40 -42 -51 -50 40 -41 52 hvcurveto
          385 vmoveto
          52 40 41 50 51 -40 42 -52 -52 -40 -42 -51 -50 40 -41 52 hvcurveto
        </CharString>
        <CharString name="comma" fdSelectIndex="6">
          78 -189 rmoveto
          113 30 71 89 122 vvcurveto
          32 -4 20 -11 30 vhcurveto
          21 -23 -23 7 -30 hhcurveto
          -52 -40 -40 -51 -29 16 -32 44 -22 hvcurveto
          72 -37 -13 38 -17 -77 -41 -37 -73 -36 rlinecurve
        </CharString>
        <CharString name="d" fdSelectIndex="6">
          269 -17 rmoveto
          74 61 37 60 44 hvcurveto
          11 hlineto
          -22 16 rlineto
          -30 -29 -31 -12 -35 hhcurveto
          -77 -57 58 163 168 63 51 76 31 31 -12 -32 31 hvcurveto
          19 12 rlineto
          -9 hlineto
          68 -44 -51 33 -72 hhcurveto
          -133 -115 -112 -182 -181 103 -105 131 hvcurveto
          163 5 rmoveto
          214 12 0 31 -64 4 0 622 3 160 -14 9 -227 -43 0 -27 82 -7 0 -266 -6 -12 rlineto
          -394 vlineto
        </CharString>
        <CharString name="e" fdSelectIndex="6">
          323 -17 rmoveto
          104 78 48 87 42 hvcurveto
          -19 13 rlineto
          -47 -33 -44 -30 -71 hhcurveto
          -100 -74 69 167 171 47 67 57 54 37 -44 -89 -62 -14 -23 -46 hvcurveto
          -237 -36 442 hlineto
          5 19 2 17 25 vvcurveto
          127 -81 101 -155 -147 -135 -102 -186 -187 119 -105 169 vhcurveto
        </CharString>
        <CharString name="eight" fdSelectIndex="6">
          291 -17 rmoveto
          176 94 85 129 100 -61 73 -133 59 hvcurveto
          -137 60 -27 63 63 vvcurveto
          70 50 44 55 64 37 -55 -78 -73 -16 -54 -41 -54 vhcurveto
          8 -8 rlineto
          3 vlineto
          127 47 49 63 71 vvcurveto
          92 -70 81 -154 -140 -104 -80 -124 -100 58 -80 116 -49 vhcurveto
          135 -59 39 -61 -74 vvcurveto
          -75 -39 -44 -73 -75 -44 50 108 71 19 46 50 51 vhcurveto
          -12 12 rlineto
          -6 vlineto
          -123 -37 -66 -64 -92 vvcurveto
          -100 76 -74 162 vhcurveto
        </CharString>
        <CharString name="equal" fdSelectIndex="6">
          579 221 rmoveto
          55 -543 -55 vlineto
          543 238 rmoveto
          55 -543 -55 vlineto
        </CharString>
        <CharString name="f" fdSelectIndex="6">
          33 hmoveto
          327 31 hlineto
          -108 10 -107 0 -112 -10 rlineto
          68 -31 rmoveto
          169 hlineto
          -3 79 -1 80 79 vvcurveto
          283 vlineto
          -7 118 5 80 35 56 13 18 25 18 31 5 rrcurveto
          8 -50 -9 vlineto
          24 -45 rlineto
          -56 26 30 -19 39 hhcurveto
          46 26 28 40 1 hvcurveto
          55 -13 -56 19 -60 hhcurveto
          -63 -60 -19 -50 -55 hvcurveto
          -48 -42 -38 -65 -12 -126 rrcurveto
          -1 -13 56 30 -134 -15 rlineto
          -32 78 -267 vlineto
          -79 -1 -80 -2 -79 vhcurveto
          85 505 rmoveto
          208 41 -208 hlineto
        </CharString>
        <CharString name="five" fdSelectIndex="6">
          269 -17 rmoveto
          171 124 82 154 149 -104 78 -169 -64 -57 -9 -25 -58 hvcurveto
          42 -13 22 316 -26 -92 rlineto
          388 124 -409 hlineto
          -24 -352 30 -20 rlineto
          11 35 33 6 38 hhcurveto
          93 59 -65 -115 -127 -61 -67 -92 -36 -18 6 16 -31 hvcurveto
          34 -25 -16 110 rlineto
          59 -6 -24 22 -41 hhcurveto
          -28 -26 -15 -30 -11 hvcurveto
          -109 8 84 -69 140 hhcurveto
        </CharString>
        <CharString name="four" fdSelectIndex="6">
          333 -15 rmoveto
          143 775 -112 hlineto
          -331 -507 rlineto
          -84 552 104 -503 19 vlineto
          -11 -44 149 230 130 201 -35 -9 rlineto
          18 -467 hlineto
        </CharString>
        <CharString name="g" fdSelectIndex="6">
          258 -259 rmoveto
          208 120 105 109 88 -60 65 -165 hvcurveto
          -146 hlineto
          -53 -22 17 32 29 10 20 22 31 hvcurveto
          -18 9 rlineto
          -9 vlineto
          -78 -50 -24 -48 -48 vvcurveto
          -49 30 -35 55 -17 vhcurveto
          -4 vlineto
          -11 32 27 0 62 hhcurveto
          111 hlineto
          67 22 -38 -32 -75 -66 -45 -135 -88 -53 39 74 43 17 23 30 36 hvcurveto
          -2 5 rlineto
          -94 -30 -44 -49 -54 vvcurveto
          -71 50 -60 185 vhcurveto
          20 456 rmoveto
          157 75 79 102 47 -15 41 -27 30 hvcurveto
          -5 5 rlineto
          38 -36 -61 24 -87 hhcurveto
          -158 -75 -78 -107 -102 75 -79 157 hvcurveto
          0 32 rmoveto
          -58 -29 57 92 97 32 56 56 54 33 -55 -98 -92 -31 -57 -57 hvcurveto
          150 262 rmoveto
          168 -17 0 78 -18 11 -144 -57 rlineto
          -6 hlineto
        </CharString>
        <CharString name="glyph00002" fdSelectIndex="6">
        </CharString>
        <CharString name="glyph00004" fdSelectIndex="6">
        </CharString>
        <CharString name="glyph00005" fdSelectIndex="6">
        </CharString>
        <CharString name="glyph00006" fdSelectIndex="6">
        </CharString>
        <CharString name="glyph00007" fdSelectIndex="6">
        </CharString>
        <CharString name="glyph00011" fdSelectIndex="6">
        </CharString>
        <CharString name="glyph00012" fdSelectIndex="6">
        </CharString>
        <CharString name="glyph00029" fdSelectIndex="6">
        </CharString>
        <CharString name="glyph00031" fdSelectIndex="6">
        </CharString>
        <CharString name="glyph00033" fdSelectIndex="6">
        </CharString>
        <CharString name="glyph00060" fdSelectIndex="6">
        </CharString>
        <CharString name="glyph00061" fdSelectIndex="6">
        </CharString>
        <CharString name="glyph00062" fdSelectIndex="6">
        </CharString>
        <CharString name="glyph00063" fdSelectIndex="6">
        </CharString>
        <CharString name="glyph00065" fdSelectIndex="6">
        </CharString>
        <CharString name="glyph00092" fdSelectIndex="6">
        </CharString>
        <CharString name="glyph00093" fdSelectIndex="6">
        </CharString>
        <CharString name="glyph00094" fdSelectIndex="6">
        </CharString>
        <CharString name="glyph00095" fdSelectIndex="6">
        </CharString>
        <CharString name="glyph00096" fdSelectIndex="6">
        </CharString>
        <CharString name="glyph00097" fdSelectIndex="6">
        </CharString>
        <CharString name="glyph00098" fdSelectIndex="6">
        </CharString>
        <CharString name="glyph00099" fdSelectIndex="6">
        </CharString>
        <CharString name="glyph00100" fdSelectIndex="6">
        </CharString>
        <CharString name="glyph00101" fdSelectIndex="6">
        </CharString>
        <CharString name="glyph00102" fdSelectIndex="6">
        </CharString>
        <CharString name="glyph00103" fdSelectIndex="6">
        </CharString>
        <CharString name="glyph00104" fdSelectIndex="2">
        </CharString>
        <CharString name="glyph00105" fdSelectIndex="6">
        </CharString>
        <CharString name="glyph00106" fdSelectIndex="6">
        </CharString>
        <CharString name="glyph00107" fdSelectIndex="6">
        </CharString>
        <CharString name="glyph00108" fdSelectIndex="6">
        </CharString>
        <CharString name="glyph00109" fdSelectIndex="6">
        </CharString>
        <CharString name="glyph00110" fdSelectIndex="6">
        </CharString>
        <CharString name="glyph00111" fdSelectIndex="6">
        </CharString>
        <CharString name="glyph00112" fdSelectIndex="6">
        </CharString>
        <CharString name="glyph00113" fdSelectIndex="6">
        </CharString>
        <CharString name="glyph00114" fdSelectIndex="6">
        </CharString>
        <CharString name="glyph00115" fdSelectIndex="6">
        </CharString>
        <CharString name="glyph00116" fdSelectIndex="6">
        </CharString>
        <CharString name="glyph00117" fdSelectIndex="6">
        </CharString>
        <CharString name="glyph00118" fdSelectIndex="6">
        </CharString>
        <CharString name="glyph00119" fdSelectIndex="6">
        </CharString>
        <CharString name="glyph00120" fdSelectIndex="6">
        </CharString>
        <CharString name="glyph00121" fdSelectIndex="6">
        </CharString>
        <CharString name="glyph00122" fdSelectIndex="6">
        </CharString>
        <CharString name="glyph00123" fdSelectIndex="6">
        </CharString>
        <CharString name="glyph00124" fdSelectIndex="6">
        </CharString>
        <CharString name="glyph00125" fdSelectIndex="6">
        </CharString>
        <CharString name="glyph00126" fdSelectIndex="6">
        </CharString>
        <CharString name="glyph00127" fdSelectIndex="6">
        </CharString>
        <CharString name="glyph00128" fdSelectIndex="6">
        </CharString>
        <CharString name="glyph00129" fdSelectIndex="6">
        </CharString>
        <CharString name="glyph00130" fdSelectIndex="6">
        </CharString>
        <CharString name="glyph00131" fdSelectIndex="6">
        </CharString>
        <CharString name="glyph00132" fdSelectIndex="6">
        </CharString>
        <CharString name="glyph00133" fdSelectIndex="6">
        </CharString>
        <CharString name="glyph00134" fdSelectIndex="6">
        </CharString>
        <CharString name="glyph00135" fdSelectIndex="2">
        </CharString>
        <CharString name="glyph00136" fdSelectIndex="2">
        </CharString>
        <CharString name="glyph00137" fdSelectIndex="6">
        </CharString>
        <CharString name="glyph00138" fdSelectIndex="6">
        </CharString>
        <CharString name="glyph00139" fdSelectIndex="6">
        </CharString>
        <CharString name="glyph00140" fdSelectIndex="6">
        </CharString>
        <CharString name="glyph00141" fdSelectIndex="2">
        </CharString>
        <CharString name="glyph00142" fdSelectIndex="2">
        </CharString>
        <CharString name="glyph00143" fdSelectIndex="2">
        </CharString>
        <CharString name="glyph00144" fdSelectIndex="6">
        </CharString>
        <CharString name="glyph00145" fdSelectIndex="6">
        </CharString>
        <CharString name="glyph00146" fdSelectIndex="2">
        </CharString>
        <CharString name="glyph00147" fdSelectIndex="2">
        </CharString>
        <CharString name="glyph00148" fdSelectIndex="6">
        </CharString>
        <CharString name="glyph00149" fdSelectIndex="2">
        </CharString>
        <CharString name="glyph00150" fdSelectIndex="2">
        </CharString>
        <CharString name="glyph00151" fdSelectIndex="2">
        </CharString>
        <CharString name="glyph00152" fdSelectIndex="2">
        </CharString>
        <CharString name="glyph00153" fdSelectIndex="2">
        </CharString>
        <CharString name="glyph00154" fdSelectIndex="2">
        </CharString>
        <CharString name="glyph00155" fdSelectIndex="2">
        </CharString>
        <CharString name="glyph00156" fdSelectIndex="2">
        </CharString>
        <CharString name="glyph00157" fdSelectIndex="2">
        </CharString>
        <CharString name="glyph00158" fdSelectIndex="2">
        </CharString>
        <CharString name="glyph00159" fdSelectIndex="3">
        </CharString>
        <CharString name="glyph00160" fdSelectIndex="3">
        </CharString>
        <CharString name="glyph00161" fdSelectIndex="2">
        </CharString>
        <CharString name="glyph00162" fdSelectIndex="2">
        </CharString>
        <CharString name="glyph00163" fdSelectIndex="2">
        </CharString>
        <CharString name="glyph00164" fdSelectIndex="2">
        </CharString>
        <CharString name="glyph00165" fdSelectIndex="2">
        </CharString>
        <CharString name="glyph00166" fdSelectIndex="2">
        </CharString>
        <CharString name="glyph00167" fdSelectIndex="2">
        </CharString>
        <CharString name="glyph00168" fdSelectIndex="2">
        </CharString>
        <CharString name="glyph00169" fdSelectIndex="6">
        </CharString>
        <CharString name="glyph00170" fdSelectIndex="6">
        </CharString>
        <CharString name="glyph00171" fdSelectIndex="2">
        </CharString>
        <CharString name="glyph00174" fdSelectIndex="2">
        </CharString>
        <CharString name="glyph00175" fdSelectIndex="2">
        </CharString>
        <CharString name="glyph00176" fdSelectIndex="2">
        </CharString>
        <CharString name="glyph00177" fdSelectIndex="2">
        </CharString>
        <CharString name="glyph00178" fdSelectIndex="2">
        </CharString>
        <CharString name="glyph00179" fdSelectIndex="2">
        </CharString>
        <CharString name="glyph00180" fdSelectIndex="2">
        </CharString>
        <CharString name="glyph00181" fdSelectIndex="2">
        </CharString>
        <CharString name="glyph00182" fdSelectIndex="2">
        </CharString>
        <CharString name="glyph00183" fdSelectIndex="2">
        </CharString>
        <CharString name="glyph00184" fdSelectIndex="2">
        </CharString>
        <CharString name="glyph00185" fdSelectIndex="2">
        </CharString>
        <CharString name="glyph00186" fdSelectIndex="2">
        </CharString>
        <CharString name="glyph00187" fdSelectIndex="2">
        </CharString>
        <CharString name="glyph00188" fdSelectIndex="2">
        </CharString>
        <CharString name="glyph00189" fdSelectIndex="5">
        </CharString>
        <CharString name="glyph00190" fdSelectIndex="5">
        </CharString>
        <CharString name="glyph00191" fdSelectIndex="5">
        </CharString>
        <CharString name="glyph00192" fdSelectIndex="5">
        </CharString>
        <CharString name="glyph00193" fdSelectIndex="5">
        </CharString>
        <CharString name="glyph00194" fdSelectIndex="5">
        </CharString>
        <CharString name="glyph00195" fdSelectIndex="5">
        </CharString>
        <CharString name="glyph00196" fdSelectIndex="5">
        </CharString>
        <CharString name="glyph00197" fdSelectIndex="5">
        </CharString>
        <CharString name="glyph00198" fdSelectIndex="5">
        </CharString>
        <CharString name="glyph00199" fdSelectIndex="5">
        </CharString>
        <CharString name="glyph00200" fdSelectIndex="5">
        </CharString>
        <CharString name="glyph00201" fdSelectIndex="5">
        </CharString>
        <CharString name="glyph00202" fdSelectIndex="5">
        </CharString>
        <CharString name="glyph00203" fdSelectIndex="5">
        </CharString>
        <CharString name="glyph00204" fdSelectIndex="5">
        </CharString>
        <CharString name="glyph00205" fdSelectIndex="5">
        </CharString>
        <CharString name="glyph00206" fdSelectIndex="5">
        </CharString>
        <CharString name="glyph00207" fdSelectIndex="5">
        </CharString>
        <CharString name="glyph00208" fdSelectIndex="5">
        </CharString>
        <CharString name="glyph00209" fdSelectIndex="5">
        </CharString>
        <CharString name="glyph00210" fdSelectIndex="5">
        </CharString>
        <CharString name="glyph00211" fdSelectIndex="5">
        </CharString>
        <CharString name="glyph00212" fdSelectIndex="5">
        </CharString>
        <CharString name="glyph00213" fdSelectIndex="5">
        </CharString>
        <CharString name="glyph00214" fdSelectIndex="5">
        </CharString>
        <CharString name="glyph00215" fdSelectIndex="5">
        </CharString>
        <CharString name="glyph00216" fdSelectIndex="5">
        </CharString>
        <CharString name="glyph00217" fdSelectIndex="5">
        </CharString>
        <CharString name="glyph00218" fdSelectIndex="5">
        </CharString>
        <CharString name="glyph00219" fdSelectIndex="5">
        </CharString>
        <CharString name="glyph00220" fdSelectIndex="5">
        </CharString>
        <CharString name="glyph00221" fdSelectIndex="5">
        </CharString>
        <CharString name="glyph00222" fdSelectIndex="5">
        </CharString>
        <CharString name="glyph00223" fdSelectIndex="5">
        </CharString>
        <CharString name="glyph00224" fdSelectIndex="5">
        </CharString>
        <CharString name="glyph00225" fdSelectIndex="5">
        </CharString>
        <CharString name="glyph00226" fdSelectIndex="5">
        </CharString>
        <CharString name="glyph00227" fdSelectIndex="5">
        </CharString>
        <CharString name="glyph00228" fdSelectIndex="5">
        </CharString>
        <CharString name="glyph00229" fdSelectIndex="5">
        </CharString>
        <CharString name="glyph00230" fdSelectIndex="5">
        </CharString>
        <CharString name="glyph00231" fdSelectIndex="5">
        </CharString>
        <CharString name="glyph00232" fdSelectIndex="5">
        </CharString>
        <CharString name="glyph00233" fdSelectIndex="5">
        </CharString>
        <CharString name="glyph00234" fdSelectIndex="5">
        </CharString>
        <CharString name="glyph00235" fdSelectIndex="5">
        </CharString>
        <CharString name="glyph00236" fdSelectIndex="5">
        </CharString>
        <CharString name="glyph00237" fdSelectIndex="5">
        </CharString>
        <CharString name="glyph00238" fdSelectIndex="5">
        </CharString>
        <CharString name="glyph00239" fdSelectIndex="5">
        </CharString>
        <CharString name="glyph00240" fdSelectIndex="5">
        </CharString>
        <CharString name="glyph00241" fdSelectIndex="5">
        </CharString>
        <CharString name="glyph00242" fdSelectIndex="5">
        </CharString>
        <CharString name="glyph00243" fdSelectIndex="5">
        </CharString>
        <CharString name="glyph00244" fdSelectIndex="5">
        </CharString>
        <CharString name="glyph00245" fdSelectIndex="5">
        </CharString>
        <CharString name="glyph00246" fdSelectIndex="5">
        </CharString>
        <CharString name="glyph00247" fdSelectIndex="5">
        </CharString>
        <CharString name="glyph00248" fdSelectIndex="5">
        </CharString>
        <CharString name="glyph00249" fdSelectIndex="5">
        </CharString>
        <CharString name="glyph00250" fdSelectIndex="5">
        </CharString>
        <CharString name="glyph00251" fdSelectIndex="5">
        </CharString>
        <CharString name="glyph00252" fdSelectIndex="2">
        </CharString>
        <CharString name="glyph00253" fdSelectIndex="5">
        </CharString>
        <CharString name="glyph00254" fdSelectIndex="5">
        </CharString>
        <CharString name="glyph00255" fdSelectIndex="5">
        </CharString>
        <CharString name="glyph00256" fdSelectIndex="5">
        </CharString>
        <CharString name="glyph00257" fdSelectIndex="5">
        </CharString>
        <CharString name="glyph00258" fdSelectIndex="5">
        </CharString>
        <CharString name="glyph00259" fdSelectIndex="5">
        </CharString>
        <CharString name="glyph00260" fdSelectIndex="5">
        </CharString>
        <CharString name="glyph00261" fdSelectIndex="5">
        </CharString>
        <CharString name="glyph00262" fdSelectIndex="5">
        </CharString>
        <CharString name="glyph00263" fdSelectIndex="5">
        </CharString>
        <CharString name="glyph00264" fdSelectIndex="5">
        </CharString>
        <CharString name="glyph00265" fdSelectIndex="5">
        </CharString>
        <CharString name="glyph00266" fdSelectIndex="5">
        </CharString>
        <CharString name="glyph00267" fdSelectIndex="5">
        </CharString>
        <CharString name="glyph00268" fdSelectIndex="5">
        </CharString>
        <CharString name="glyph00269" fdSelectIndex="5">
        </CharString>
        <CharString name="glyph00270" fdSelectIndex="5">
        </CharString>
        <CharString name="glyph00271" fdSelectIndex="5">
        </CharString>
        <CharString name="glyph00272" fdSelectIndex="5">
        </CharString>
        <CharString name="glyph00273" fdSelectIndex="5">
        </CharString>
        <CharString name="glyph00274" fdSelectIndex="5">
        </CharString>
        <CharString name="glyph00275" fdSelectIndex="5">
        </CharString>
        <CharString name="glyph00276" fdSelectIndex="5">
        </CharString>
        <CharString name="glyph00277" fdSelectIndex="5">
        </CharString>
        <CharString name="glyph00278" fdSelectIndex="5">
        </CharString>
        <CharString name="glyph00279" fdSelectIndex="5">
        </CharString>
        <CharString name="glyph00280" fdSelectIndex="5">
        </CharString>
        <CharString name="glyph00281" fdSelectIndex="5">
        </CharString>
        <CharString name="glyph00282" fdSelectIndex="5">
        </CharString>
        <CharString name="glyph00283" fdSelectIndex="5">
        </CharString>
        <CharString name="glyph00284" fdSelectIndex="5">
        </CharString>
        <CharString name="glyph00285" fdSelectIndex="5">
        </CharString>
        <CharString name="glyph00286" fdSelectIndex="5">
        </CharString>
        <CharString name="glyph00287" fdSelectIndex="5">
        </CharString>
        <CharString name="glyph00288" fdSelectIndex="5">
        </CharString>
        <CharString name="glyph00289" fdSelectIndex="5">
        </CharString>
        <CharString name="glyph00290" fdSelectIndex="5">
        </CharString>
        <CharString name="glyph00291" fdSelectIndex="5">
        </CharString>
        <CharString name="glyph00292" fdSelectIndex="5">
        </CharString>
        <CharString name="glyph00293" fdSelectIndex="5">
        </CharString>
        <CharString name="glyph00294" fdSelectIndex="5">
        </CharString>
        <CharString name="glyph00295" fdSelectIndex="5">
        </CharString>
        <CharString name="glyph00296" fdSelectIndex="5">
        </CharString>
        <CharString name="glyph00297" fdSelectIndex="5">
        </CharString>
        <CharString name="glyph00298" fdSelectIndex="5">
        </CharString>
        <CharString name="glyph00299" fdSelectIndex="5">
        </CharString>
        <CharString name="glyph00300" fdSelectIndex="5">
        </CharString>
        <CharString name="glyph00301" fdSelectIndex="5">
        </CharString>
        <CharString name="glyph00302" fdSelectIndex="5">
        </CharString>
        <CharString name="glyph00303" fdSelectIndex="5">
        </CharString>
        <CharString name="glyph00304" fdSelectIndex="5">
        </CharString>
        <CharString name="glyph00305" fdSelectIndex="5">
        </CharString>
        <CharString name="glyph00306" fdSelectIndex="5">
        </CharString>
        <CharString name="glyph00307" fdSelectIndex="5">
        </CharString>
        <CharString name="glyph00308" fdSelectIndex="5">
        </CharString>
        <CharString name="glyph00309" fdSelectIndex="5">
        </CharString>
        <CharString name="glyph00310" fdSelectIndex="5">
        </CharString>
        <CharString name="glyph00311" fdSelectIndex="5">
        </CharString>
        <CharString name="glyph00312" fdSelectIndex="5">
        </CharString>
        <CharString name="glyph00313" fdSelectIndex="5">
        </CharString>
        <CharString name="glyph00314" fdSelectIndex="5">
        </CharString>
        <CharString name="glyph00315" fdSelectIndex="5">
        </CharString>
        <CharString name="glyph00316" fdSelectIndex="5">
        </CharString>
        <CharString name="glyph00317" fdSelectIndex="5">
        </CharString>
        <CharString name="glyph00318" fdSelectIndex="5">
        </CharString>
        <CharString name="glyph00319" fdSelectIndex="5">
        </CharString>
        <CharString name="glyph00320" fdSelectIndex="5">
        </CharString>
        <CharString name="glyph00321" fdSelectIndex="5">
        </CharString>
        <CharString name="glyph00322" fdSelectIndex="5">
        </CharString>
        <CharString name="glyph00323" fdSelectIndex="2">
        </CharString>
        <CharString name="glyph00324" fdSelectIndex="5">
        </CharString>
        <CharString name="glyph00325" fdSelectIndex="2">
        </CharString>
        <CharString name="glyph00326" fdSelectIndex="4">
        </CharString>
        <CharString name="glyph00327" fdSelectIndex="4">
        </CharString>
        <CharString name="glyph00329" fdSelectIndex="4">
        </CharString>
        <CharString name="glyph00330" fdSelectIndex="4">
        </CharString>
        <CharString name="glyph00331" fdSelectIndex="4">
        </CharString>
        <CharString name="glyph00332" fdSelectIndex="4">
        </CharString>
        <CharString name="glyph00333" fdSelectIndex="4">
        </CharString>
        <CharString name="glyph00337" fdSelectIndex="4">
        </CharString>
        <CharString name="glyph00338" fdSelectIndex="4">
        </CharString>
        <CharString name="glyph00339" fdSelectIndex="4">
        </CharString>
        <CharString name="glyph00340" fdSelectIndex="4">
        </CharString>
        <CharString name="glyph00341" fdSelectIndex="4">
        </CharString>
        <CharString name="glyph00342" fdSelectIndex="4">
        </CharString>
        <CharString name="glyph00343" fdSelectIndex="4">
        </CharString>
        <CharString name="glyph00344" fdSelectIndex="4">
        </CharString>
        <CharString name="glyph00345" fdSelectIndex="4">
        </CharString>
        <CharString name="glyph00346" fdSelectIndex="4">
        </CharString>
        <CharString name="glyph00347" fdSelectIndex="4">
        </CharString>
        <CharString name="glyph00348" fdSelectIndex="4">
        </CharString>
        <CharString name="glyph00349" fdSelectIndex="4">
        </CharString>
        <CharString name="glyph00350" fdSelectIndex="4">
        </CharString>
        <CharString name="glyph00351" fdSelectIndex="4">
        </CharString>
        <CharString name="glyph00352" fdSelectIndex="4">
        </CharString>
        <CharString name="glyph00353" fdSelectIndex="4">
        </CharString>
        <CharString name="glyph00354" fdSelectIndex="4">
        </CharString>
        <CharString name="glyph00355" fdSelectIndex="4">
        </CharString>
        <CharString name="glyph00357" fdSelectIndex="4">
        </CharString>
        <CharString name="glyph00358" fdSelectIndex="4">
        </CharString>
        <CharString name="glyph00359" fdSelectIndex="4">
        </CharString>
        <CharString name="glyph00360" fdSelectIndex="4">
        </CharString>
        <CharString name="glyph00361" fdSelectIndex="4">
        </CharString>
        <CharString name="glyph00362" fdSelectIndex="4">
        </CharString>
        <CharString name="glyph00363" fdSelectIndex="4">
        </CharString>
        <CharString name="glyph00364" fdSelectIndex="4">
        </CharString>
        <CharString name="glyph00365" fdSelectIndex="4">
        </CharString>
        <CharString name="glyph00366" fdSelectIndex="4">
        </CharString>
        <CharString name="glyph00367" fdSelectIndex="4">
        </CharString>
        <CharString name="glyph00368" fdSelectIndex="4">
        </CharString>
        <CharString name="glyph00369" fdSelectIndex="4">
        </CharString>
        <CharString name="glyph00370" fdSelectIndex="4">
        </CharString>
        <CharString name="glyph00371" fdSelectIndex="4">
        </CharString>
        <CharString name="glyph00372" fdSelectIndex="4">
        </CharString>
        <CharString name="glyph00373" fdSelectIndex="4">
        </CharString>
        <CharString name="glyph00374" fdSelectIndex="4">
        </CharString>
        <CharString name="glyph00375" fdSelectIndex="4">
        </CharString>
        <CharString name="glyph00376" fdSelectIndex="4">
        </CharString>
        <CharString name="glyph00377" fdSelectIndex="4">
        </CharString>
        <CharString name="glyph00378" fdSelectIndex="4">
        </CharString>
        <CharString name="glyph00379" fdSelectIndex="4">
        </CharString>
        <CharString name="glyph00380" fdSelectIndex="4">
        </CharString>
        <CharString name="glyph00381" fdSelectIndex="4">
        </CharString>
        <CharString name="glyph00382" fdSelectIndex="4">
        </CharString>
        <CharString name="glyph00383" fdSelectIndex="4">
        </CharString>
        <CharString name="glyph00384" fdSelectIndex="4">
        </CharString>
        <CharString name="glyph00385" fdSelectIndex="4">
        </CharString>
        <CharString name="glyph00386" fdSelectIndex="4">
        </CharString>
        <CharString name="glyph00387" fdSelectIndex="4">
        </CharString>
        <CharString name="glyph00388" fdSelectIndex="4">
        </CharString>
        <CharString name="glyph00389" fdSelectIndex="4">
        </CharString>
        <CharString name="glyph00390" fdSelectIndex="4">
        </CharString>
        <CharString name="glyph00391" fdSelectIndex="4">
        </CharString>
        <CharString name="glyph00392" fdSelectIndex="4">
        </CharString>
        <CharString name="glyph00394" fdSelectIndex="4">
        </CharString>
        <CharString name="glyph00395" fdSelectIndex="4">
        </CharString>
        <CharString name="glyph00396" fdSelectIndex="4">
        </CharString>
        <CharString name="glyph00397" fdSelectIndex="4">
        </CharString>
        <CharString name="glyph00398" fdSelectIndex="4">
        </CharString>
        <CharString name="glyph00399" fdSelectIndex="4">
        </CharString>
        <CharString name="glyph00400" fdSelectIndex="4">
        </CharString>
        <CharString name="glyph00401" fdSelectIndex="4">
        </CharString>
        <CharString name="glyph00402" fdSelectIndex="4">
        </CharString>
        <CharString name="glyph00403" fdSelectIndex="4">
        </CharString>
        <CharString name="glyph00404" fdSelectIndex="4">
        </CharString>
        <CharString name="glyph00405" fdSelectIndex="4">
        </CharString>
        <CharString name="glyph00406" fdSelectIndex="4">
        </CharString>
        <CharString name="glyph00407" fdSelectIndex="4">
        </CharString>
        <CharString name="glyph00408" fdSelectIndex="4">
        </CharString>
        <CharString name="glyph00409" fdSelectIndex="4">
        </CharString>
        <CharString name="glyph00410" fdSelectIndex="4">
        </CharString>
        <CharString name="glyph00411" fdSelectIndex="4">
        </CharString>
        <CharString name="glyph00412" fdSelectIndex="4">
        </CharString>
        <CharString name="glyph00413" fdSelectIndex="4">
        </CharString>
        <CharString name="glyph00414" fdSelectIndex="4">
        </CharString>
        <CharString name="glyph00415" fdSelectIndex="4">
        </CharString>
        <CharString name="glyph00416" fdSelectIndex="4">
        </CharString>
        <CharString name="glyph00418" fdSelectIndex="4">
        </CharString>
        <CharString name="glyph00419" fdSelectIndex="4">
        </CharString>
        <CharString name="glyph00420" fdSelectIndex="4">
        </CharString>
        <CharString name="glyph00421" fdSelectIndex="4">
        </CharString>
        <CharString name="glyph00422" fdSelectIndex="4">
        </CharString>
        <CharString name="glyph00423" fdSelectIndex="4">
        </CharString>
        <CharString name="glyph00424" fdSelectIndex="4">
        </CharString>
        <CharString name="glyph00425" fdSelectIndex="4">
        </CharString>
        <CharString name="glyph00426" fdSelectIndex="4">
        </CharString>
        <CharString name="glyph00427" fdSelectIndex="4">
        </CharString>
        <CharString name="glyph00428" fdSelectIndex="4">
        </CharString>
        <CharString name="glyph00429" fdSelectIndex="4">
        </CharString>
        <CharString name="glyph00430" fdSelectIndex="4">
        </CharString>
        <CharString name="glyph00431" fdSelectIndex="4">
        </CharString>
        <CharString name="glyph00432" fdSelectIndex="4">
        </CharString>
        <CharString name="glyph00433" fdSelectIndex="4">
        </CharString>
        <CharString name="glyph00434" fdSelectIndex="4">
        </CharString>
        <CharString name="glyph00435" fdSelectIndex="4">
        </CharString>
        <CharString name="glyph00436" fdSelectIndex="4">
        </CharString>
        <CharString name="glyph00437" fdSelectIndex="4">
        </CharString>
        <CharString name="glyph00439" fdSelectIndex="4">
        </CharString>
        <CharString name="glyph00440" fdSelectIndex="4">
        </CharString>
        <CharString name="glyph00441" fdSelectIndex="4">
        </CharString>
        <CharString name="glyph00442" fdSelectIndex="4">
        </CharString>
        <CharString name="glyph00443" fdSelectIndex="4">
        </CharString>
        <CharString name="glyph00444" fdSelectIndex="4">
        </CharString>
        <CharString name="glyph00445" fdSelectIndex="4">
        </CharString>
        <CharString name="glyph00446" fdSelectIndex="4">
        </CharString>
        <CharString name="glyph00447" fdSelectIndex="4">
        </CharString>
        <CharString name="glyph00448" fdSelectIndex="4">
        </CharString>
        <CharString name="glyph00449" fdSelectIndex="4">
        </CharString>
        <CharString name="glyph00450" fdSelectIndex="4">
        </CharString>
        <CharString name="glyph00451" fdSelectIndex="4">
        </CharString>
        <CharString name="glyph00452" fdSelectIndex="4">
        </CharString>
        <CharString name="glyph00453" fdSelectIndex="4">
        </CharString>
        <CharString name="glyph00454" fdSelectIndex="4">
        </CharString>
        <CharString name="glyph00455" fdSelectIndex="4">
        </CharString>
        <CharString name="glyph00456" fdSelectIndex="4">
        </CharString>
        <CharString name="glyph00457" fdSelectIndex="4">
        </CharString>
        <CharString name="glyph00458" fdSelectIndex="4">
        </CharString>
        <CharString name="glyph00459" fdSelectIndex="4">
        </CharString>
        <CharString name="glyph00460" fdSelectIndex="4">
        </CharString>
        <CharString name="glyph00461" fdSelectIndex="4">
        </CharString>
        <CharString name="glyph00462" fdSelectIndex="4">
        </CharString>
        <CharString name="glyph00463" fdSelectIndex="4">
        </CharString>
        <CharString name="glyph00464" fdSelectIndex="4">
        </CharString>
        <CharString name="glyph00465" fdSelectIndex="4">
        </CharString>
        <CharString name="glyph00466" fdSelectIndex="4">
        </CharString>
        <CharString name="glyph00467" fdSelectIndex="4">
        </CharString>
        <CharString name="glyph00468" fdSelectIndex="4">
        </CharString>
        <CharString name="glyph00469" fdSelectIndex="4">
        </CharString>
        <CharString name="glyph00470" fdSelectIndex="4">
        </CharString>
        <CharString name="glyph00471" fdSelectIndex="4">
        </CharString>
        <CharString name="glyph00472" fdSelectIndex="4">
        </CharString>
        <CharString name="glyph00473" fdSelectIndex="4">
        </CharString>
        <CharString name="glyph00474" fdSelectIndex="4">
        </CharString>
        <CharString name="glyph00475" fdSelectIndex="4">
        </CharString>
        <CharString name="glyph00476" fdSelectIndex="4">
        </CharString>
        <CharString name="glyph00477" fdSelectIndex="4">
        </CharString>
        <CharString name="glyph00478" fdSelectIndex="4">
        </CharString>
        <CharString name="glyph00479" fdSelectIndex="4">
        </CharString>
        <CharString name="glyph00480" fdSelectIndex="4">
        </CharString>
        <CharString name="glyph00481" fdSelectIndex="4">
        </CharString>
        <CharString name="glyph00483" fdSelectIndex="4">
        </CharString>
        <CharString name="glyph00484" fdSelectIndex="4">
        </CharString>
        <CharString name="glyph00485" fdSelectIndex="4">
        </CharString>
        <CharString name="glyph00486" fdSelectIndex="4">
        </CharString>
        <CharString name="glyph00487" fdSelectIndex="4">
        </CharString>
        <CharString name="glyph00488" fdSelectIndex="4">
        </CharString>
        <CharString name="glyph00489" fdSelectIndex="4">
        </CharString>
        <CharString name="glyph00490" fdSelectIndex="4">
        </CharString>
        <CharString name="glyph00491" fdSelectIndex="4">
        </CharString>
        <CharString name="glyph00492" fdSelectIndex="4">
        </CharString>
        <CharString name="glyph00493" fdSelectIndex="4">
        </CharString>
        <CharString name="glyph00494" fdSelectIndex="4">
        </CharString>
        <CharString name="glyph00495" fdSelectIndex="4">
        </CharString>
        <CharString name="glyph00496" fdSelectIndex="4">
        </CharString>
        <CharString name="glyph00497" fdSelectIndex="4">
        </CharString>
        <CharString name="glyph00498" fdSelectIndex="4">
        </CharString>
        <CharString name="glyph00499" fdSelectIndex="4">
        </CharString>
        <CharString name="glyph00500" fdSelectIndex="4">
        </CharString>
        <CharString name="glyph00501" fdSelectIndex="4">
        </CharString>
        <CharString name="glyph00502" fdSelectIndex="4">
        </CharString>
        <CharString name="glyph00503" fdSelectIndex="4">
        </CharString>
        <CharString name="glyph00504" fdSelectIndex="4">
        </CharString>
        <CharString name="glyph00505" fdSelectIndex="4">
        </CharString>
        <CharString name="glyph00506" fdSelectIndex="4">
        </CharString>
        <CharString name="glyph00507" fdSelectIndex="4">
        </CharString>
        <CharString name="glyph00508" fdSelectIndex="4">
        </CharString>
        <CharString name="glyph00509" fdSelectIndex="4">
        </CharString>
        <CharString name="glyph00510" fdSelectIndex="4">
        </CharString>
        <CharString name="glyph00511" fdSelectIndex="4">
        </CharString>
        <CharString name="glyph00512" fdSelectIndex="4">
        </CharString>
        <CharString name="glyph00513" fdSelectIndex="4">
        </CharString>
        <CharString name="glyph00514" fdSelectIndex="4">
        </CharString>
        <CharString name="glyph00515" fdSelectIndex="4">
        </CharString>
        <CharString name="glyph00516" fdSelectIndex="4">
        </CharString>
        <CharString name="glyph00517" fdSelectIndex="4">
        </CharString>
        <CharString name="glyph00518" fdSelectIndex="4">
        </CharString>
        <CharString name="glyph00519" fdSelectIndex="4">
        </CharString>
        <CharString name="glyph00520" fdSelectIndex="4">
        </CharString>
        <CharString name="glyph00521" fdSelectIndex="4">
        </CharString>
        <CharString name="glyph00522" fdSelectIndex="4">
        </CharString>
        <CharString name="glyph00523" fdSelectIndex="4">
        </CharString>
        <CharString name="glyph00524" fdSelectIndex="4">
        </CharString>
        <CharString name="glyph00525" fdSelectIndex="4">
        </CharString>
        <CharString name="glyph00526" fdSelectIndex="4">
        </CharString>
        <CharString name="glyph00527" fdSelectIndex="4">
        </CharString>
        <CharString name="glyph00528" fdSelectIndex="4">
        </CharString>
        <CharString name="glyph00529" fdSelectIndex="4">
        </CharString>
        <CharString name="glyph00530" fdSelectIndex="4">
        </CharString>
        <CharString name="glyph00531" fdSelectIndex="4">
        </CharString>
        <CharString name="glyph00532" fdSelectIndex="4">
        </CharString>
        <CharString name="glyph00533" fdSelectIndex="4">
        </CharString>
        <CharString name="glyph00534" fdSelectIndex="4">
        </CharString>
        <CharString name="glyph00535" fdSelectIndex="4">
        </CharString>
        <CharString name="glyph00536" fdSelectIndex="4">
        </CharString>
        <CharString name="glyph00537" fdSelectIndex="4">
        </CharString>
        <CharString name="glyph00538" fdSelectIndex="4">
        </CharString>
        <CharString name="glyph00539" fdSelectIndex="4">
        </CharString>
        <CharString name="glyph00540" fdSelectIndex="4">
        </CharString>
        <CharString name="glyph00541" fdSelectIndex="4">
        </CharString>
        <CharString name="glyph00542" fdSelectIndex="4">
        </CharString>
        <CharString name="glyph00543" fdSelectIndex="4">
        </CharString>
        <CharString name="glyph00544" fdSelectIndex="4">
        </CharString>
        <CharString name="glyph00545" fdSelectIndex="4">
        </CharString>
        <CharString name="glyph00546" fdSelectIndex="4">
        </CharString>
        <CharString name="glyph00547" fdSelectIndex="4">
        </CharString>
        <CharString name="glyph00548" fdSelectIndex="4">
        </CharString>
        <CharString name="glyph00549" fdSelectIndex="4">
        </CharString>
        <CharString name="glyph00550" fdSelectIndex="4">
        </CharString>
        <CharString name="glyph00551" fdSelectIndex="4">
        </CharString>
        <CharString name="glyph00552" fdSelectIndex="4">
        </CharString>
        <CharString name="glyph00553" fdSelectIndex="4">
        </CharString>
        <CharString name="glyph00554" fdSelectIndex="4">
        </CharString>
        <CharString name="glyph00555" fdSelectIndex="4">
        </CharString>
        <CharString name="glyph00556" fdSelectIndex="4">
        </CharString>
        <CharString name="glyph00557" fdSelectIndex="4">
        </CharString>
        <CharString name="glyph00558" fdSelectIndex="4">
        </CharString>
        <CharString name="glyph00559" fdSelectIndex="4">
        </CharString>
        <CharString name="glyph00560" fdSelectIndex="4">
        </CharString>
        <CharString name="glyph00561" fdSelectIndex="4">
        </CharString>
        <CharString name="glyph00562" fdSelectIndex="4">
        </CharString>
        <CharString name="glyph00563" fdSelectIndex="4">
        </CharString>
        <CharString name="glyph00564" fdSelectIndex="4">
        </CharString>
        <CharString name="glyph00565" fdSelectIndex="4">
        </CharString>
        <CharString name="glyph00566" fdSelectIndex="4">
        </CharString>
        <CharString name="glyph00567" fdSelectIndex="4">
        </CharString>
        <CharString name="glyph00568" fdSelectIndex="4">
        </CharString>
        <CharString name="glyph00569" fdSelectIndex="4">
        </CharString>
        <CharString name="glyph00571" fdSelectIndex="4">
        </CharString>
        <CharString name="glyph00572" fdSelectIndex="4">
        </CharString>
        <CharString name="glyph00573" fdSelectIndex="4">
        </CharString>
        <CharString name="glyph00574" fdSelectIndex="4">
        </CharString>
        <CharString name="glyph00575" fdSelectIndex="4">
        </CharString>
        <CharString name="glyph00576" fdSelectIndex="4">
        </CharString>
        <CharString name="glyph00578" fdSelectIndex="4">
        </CharString>
        <CharString name="glyph00579" fdSelectIndex="4">
        </CharString>
        <CharString name="glyph00580" fdSelectIndex="4">
        </CharString>
        <CharString name="glyph00581" fdSelectIndex="4">
        </CharString>
        <CharString name="glyph00582" fdSelectIndex="4">
        </CharString>
        <CharString name="glyph00583" fdSelectIndex="4">
        </CharString>
        <CharString name="glyph00584" fdSelectIndex="4">
        </CharString>
        <CharString name="glyph00585" fdSelectIndex="4">
        </CharString>
        <CharString name="glyph00586" fdSelectIndex="4">
        </CharString>
        <CharString name="glyph00587" fdSelectIndex="4">
        </CharString>
        <CharString name="glyph00588" fdSelectIndex="4">
        </CharString>
        <CharString name="glyph00589" fdSelectIndex="4">
        </CharString>
        <CharString name="glyph00590" fdSelectIndex="4">
        </CharString>
        <CharString name="glyph00591" fdSelectIndex="4">
        </CharString>
        <CharString name="glyph00592" fdSelectIndex="4">
        </CharString>
        <CharString name="glyph00593" fdSelectIndex="4">
        </CharString>
        <CharString name="glyph00594" fdSelectIndex="4">
        </CharString>
        <CharString name="glyph00595" fdSelectIndex="4">
        </CharString>
        <CharString name="glyph00596" fdSelectIndex="4">
        </CharString>
        <CharString name="glyph00597" fdSelectIndex="4">
        </CharString>
        <CharString name="glyph00598" fdSelectIndex="4">
        </CharString>
        <CharString name="glyph00599" fdSelectIndex="4">
        </CharString>
        <CharString name="glyph00600" fdSelectIndex="4">
        </CharString>
        <CharString name="glyph00601" fdSelectIndex="4">
        </CharString>
        <CharString name="glyph00602" fdSelectIndex="4">
        </CharString>
        <CharString name="glyph00603" fdSelectIndex="4">
        </CharString>
        <CharString name="glyph00604" fdSelectIndex="4">
        </CharString>
        <CharString name="glyph00605" fdSelectIndex="4">
        </CharString>
        <CharString name="glyph00606" fdSelectIndex="4">
        </CharString>
        <CharString name="glyph00607" fdSelectIndex="4">
        </CharString>
        <CharString name="glyph00608" fdSelectIndex="4">
        </CharString>
        <CharString name="glyph00609" fdSelectIndex="4">
        </CharString>
        <CharString name="glyph00610" fdSelectIndex="4">
        </CharString>
        <CharString name="glyph00611" fdSelectIndex="4">
        </CharString>
        <CharString name="glyph00612" fdSelectIndex="4">
        </CharString>
        <CharString name="glyph00613" fdSelectIndex="4">
        </CharString>
        <CharString name="glyph00614" fdSelectIndex="4">
        </CharString>
        <CharString name="glyph00615" fdSelectIndex="4">
        </CharString>
        <CharString name="glyph00616" fdSelectIndex="4">
        </CharString>
        <CharString name="glyph00617" fdSelectIndex="4">
        </CharString>
        <CharString name="glyph00618" fdSelectIndex="4">
        </CharString>
        <CharString name="glyph00619" fdSelectIndex="4">
        </CharString>
        <CharString name="glyph00620" fdSelectIndex="4">
        </CharString>
        <CharString name="glyph00621" fdSelectIndex="4">
        </CharString>
        <CharString name="glyph00622" fdSelectIndex="4">
        </CharString>
        <CharString name="glyph00623" fdSelectIndex="4">
        </CharString>
        <CharString name="glyph00624" fdSelectIndex="4">
        </CharString>
        <CharString name="glyph00625" fdSelectIndex="4">
        </CharString>
        <CharString name="glyph00626" fdSelectIndex="4">
        </CharString>
        <CharString name="glyph00627" fdSelectIndex="4">
        </CharString>
        <CharString name="glyph00628" fdSelectIndex="4">
        </CharString>
        <CharString name="glyph00629" fdSelectIndex="4">
        </CharString>
        <CharString name="glyph00630" fdSelectIndex="4">
        </CharString>
        <CharString name="glyph00632" fdSelectIndex="4">
        </CharString>
        <CharString name="glyph00633" fdSelectIndex="4">
        </CharString>
        <CharString name="glyph00634" fdSelectIndex="4">
        </CharString>
        <CharString name="glyph00635" fdSelectIndex="4">
        </CharString>
        <CharString name="glyph00636" fdSelectIndex="4">
        </CharString>
        <CharString name="glyph00637" fdSelectIndex="4">
        </CharString>
        <CharString name="glyph00638" fdSelectIndex="4">
        </CharString>
        <CharString name="glyph00639" fdSelectIndex="4">
        </CharString>
        <CharString name="glyph00640" fdSelectIndex="4">
        </CharString>
        <CharString name="glyph00641" fdSelectIndex="4">
        </CharString>
        <CharString name="glyph00642" fdSelectIndex="4">
        </CharString>
        <CharString name="glyph00643" fdSelectIndex="4">
        </CharString>
        <CharString name="glyph00644" fdSelectIndex="4">
        </CharString>
        <CharString name="glyph00645" fdSelectIndex="4">
        </CharString>
        <CharString name="glyph00646" fdSelectIndex="4">
        </CharString>
        <CharString name="glyph00647" fdSelectIndex="4">
        </CharString>
        <CharString name="glyph00649" fdSelectIndex="4">
        </CharString>
        <CharString name="glyph00650" fdSelectIndex="4">
        </CharString>
        <CharString name="glyph00651" fdSelectIndex="4">
        </CharString>
        <CharString name="glyph00652" fdSelectIndex="4">
        </CharString>
        <CharString name="glyph00653" fdSelectIndex="4">
        </CharString>
        <CharString name="glyph00654" fdSelectIndex="4">
        </CharString>
        <CharString name="glyph00655" fdSelectIndex="4">
        </CharString>
        <CharString name="glyph00656" fdSelectIndex="4">
        </CharString>
        <CharString name="glyph00657" fdSelectIndex="4">
        </CharString>
        <CharString name="glyph00658" fdSelectIndex="4">
        </CharString>
        <CharString name="glyph00659" fdSelectIndex="4">
        </CharString>
        <CharString name="glyph00660" fdSelectIndex="4">
        </CharString>
        <CharString name="glyph00661" fdSelectIndex="4">
        </CharString>
        <CharString name="glyph00662" fdSelectIndex="4">
        </CharString>
        <CharString name="glyph00663" fdSelectIndex="4">
        </CharString>
        <CharString name="glyph00664" fdSelectIndex="4">
        </CharString>
        <CharString name="glyph00665" fdSelectIndex="4">
        </CharString>
        <CharString name="glyph00666" fdSelectIndex="4">
        </CharString>
        <CharString name="glyph00667" fdSelectIndex="4">
        </CharString>
        <CharString name="glyph00668" fdSelectIndex="4">
        </CharString>
        <CharString name="glyph00669" fdSelectIndex="4">
        </CharString>
        <CharString name="glyph00670" fdSelectIndex="4">
        </CharString>
        <CharString name="glyph00671" fdSelectIndex="4">
        </CharString>
        <CharString name="glyph00672" fdSelectIndex="4">
        </CharString>
        <CharString name="glyph00673" fdSelectIndex="4">
        </CharString>
        <CharString name="glyph00674" fdSelectIndex="4">
        </CharString>
        <CharString name="glyph00675" fdSelectIndex="4">
        </CharString>
        <CharString name="glyph00676" fdSelectIndex="4">
        </CharString>
        <CharString name="glyph00677" fdSelectIndex="4">
        </CharString>
        <CharString name="glyph00678" fdSelectIndex="4">
        </CharString>
        <CharString name="glyph00679" fdSelectIndex="4">
        </CharString>
        <CharString name="glyph00680" fdSelectIndex="4">
        </CharString>
        <CharString name="glyph00681" fdSelectIndex="4">
        </CharString>
        <CharString name="glyph00682" fdSelectIndex="4">
        </CharString>
        <CharString name="glyph00683" fdSelectIndex="4">
        </CharString>
        <CharString name="glyph00684" fdSelectIndex="4">
        </CharString>
        <CharString name="glyph00685" fdSelectIndex="4">
        </CharString>
        <CharString name="glyph00686" fdSelectIndex="4">
        </CharString>
        <CharString name="glyph00687" fdSelectIndex="4">
        </CharString>
        <CharString name="glyph00688" fdSelectIndex="4">
        </CharString>
        <CharString name="glyph00689" fdSelectIndex="4">
        </CharString>
        <CharString name="glyph00690" fdSelectIndex="4">
        </CharString>
        <CharString name="glyph00691" fdSelectIndex="4">
        </CharString>
        <CharString name="glyph00692" fdSelectIndex="4">
        </CharString>
        <CharString name="glyph00693" fdSelectIndex="4">
        </CharString>
        <CharString name="glyph00694" fdSelectIndex="4">
        </CharString>
        <CharString name="glyph00695" fdSelectIndex="4">
        </CharString>
        <CharString name="glyph00696" fdSelectIndex="4">
        </CharString>
        <CharString name="glyph00697" fdSelectIndex="4">
        </CharString>
        <CharString name="glyph00698" fdSelectIndex="4">
        </CharString>
        <CharString name="glyph00699" fdSelectIndex="4">
        </CharString>
        <CharString name="glyph00700" fdSelectIndex="4">
        </CharString>
        <CharString name="glyph00701" fdSelectIndex="4">
        </CharString>
        <CharString name="glyph00702" fdSelectIndex="4">
        </CharString>
        <CharString name="glyph00703" fdSelectIndex="4">
        </CharString>
        <CharString name="glyph00704" fdSelectIndex="4">
        </CharString>
        <CharString name="glyph00705" fdSelectIndex="4">
        </CharString>
        <CharString name="glyph00706" fdSelectIndex="4">
        </CharString>
        <CharString name="glyph00707" fdSelectIndex="4">
        </CharString>
        <CharString name="glyph00708" fdSelectIndex="4">
        </CharString>
        <CharString name="glyph00709" fdSelectIndex="4">
        </CharString>
        <CharString name="glyph00710" fdSelectIndex="4">
        </CharString>
        <CharString name="glyph00711" fdSelectIndex="4">
        </CharString>
        <CharString name="glyph00712" fdSelectIndex="4">
        </CharString>
        <CharString name="glyph00713" fdSelectIndex="4">
        </CharString>
        <CharString name="glyph00714" fdSelectIndex="4">
        </CharString>
        <CharString name="glyph00715" fdSelectIndex="4">
        </CharString>
        <CharString name="glyph00716" fdSelectIndex="4">
        </CharString>
        <CharString name="glyph00717" fdSelectIndex="4">
        </CharString>
        <CharString name="glyph00718" fdSelectIndex="4">
        </CharString>
        <CharString name="glyph00719" fdSelectIndex="4">
        </CharString>
        <CharString name="glyph00720" fdSelectIndex="4">
        </CharString>
        <CharString name="glyph00721" fdSelectIndex="4">
        </CharString>
        <CharString name="glyph00722" fdSelectIndex="4">
        </CharString>
        <CharString name="glyph00723" fdSelectIndex="4">
        </CharString>
        <CharString name="glyph00724" fdSelectIndex="4">
        </CharString>
        <CharString name="glyph00725" fdSelectIndex="4">
        </CharString>
        <CharString name="glyph00726" fdSelectIndex="4">
        </CharString>
        <CharString name="glyph00727" fdSelectIndex="4">
        </CharString>
        <CharString name="glyph00728" fdSelectIndex="4">
        </CharString>
        <CharString name="glyph00729" fdSelectIndex="4">
        </CharString>
        <CharString name="glyph00730" fdSelectIndex="4">
        </CharString>
        <CharString name="glyph00731" fdSelectIndex="4">
        </CharString>
        <CharString name="glyph00732" fdSelectIndex="4">
        </CharString>
        <CharString name="glyph00733" fdSelectIndex="4">
        </CharString>
        <CharString name="glyph00734" fdSelectIndex="4">
        </CharString>
        <CharString name="glyph00735" fdSelectIndex="4">
        </CharString>
        <CharString name="glyph00736" fdSelectIndex="4">
        </CharString>
        <CharString name="glyph00737" fdSelectIndex="4">
        </CharString>
        <CharString name="glyph00738" fdSelectIndex="4">
        </CharString>
        <CharString name="glyph00739" fdSelectIndex="4">
        </CharString>
        <CharString name="glyph00740" fdSelectIndex="4">
        </CharString>
        <CharString name="glyph00741" fdSelectIndex="4">
        </CharString>
        <CharString name="glyph00742" fdSelectIndex="4">
        </CharString>
        <CharString name="glyph00743" fdSelectIndex="4">
        </CharString>
        <CharString name="glyph00744" fdSelectIndex="4">
        </CharString>
        <CharString name="glyph00745" fdSelectIndex="4">
        </CharString>
        <CharString name="glyph00746" fdSelectIndex="4">
        </CharString>
        <CharString name="glyph00747" fdSelectIndex="4">
        </CharString>
        <CharString name="glyph00748" fdSelectIndex="4">
        </CharString>
        <CharString name="glyph00749" fdSelectIndex="4">
        </CharString>
        <CharString name="glyph00750" fdSelectIndex="4">
        </CharString>
        <CharString name="glyph00751" fdSelectIndex="4">
        </CharString>
        <CharString name="glyph00752" fdSelectIndex="4">
        </CharString>
        <CharString name="glyph00753" fdSelectIndex="4">
        </CharString>
        <CharString name="glyph00754" fdSelectIndex="4">
        </CharString>
        <CharString name="glyph00755" fdSelectIndex="4">
        </CharString>
        <CharString name="glyph00756" fdSelectIndex="4">
        </CharString>
        <CharString name="glyph00757" fdSelectIndex="4">
        </CharString>
        <CharString name="glyph00758" fdSelectIndex="4">
        </CharString>
        <CharString name="glyph00759" fdSelectIndex="4">
        </CharString>
        <CharString name="glyph00760" fdSelectIndex="4">
        </CharString>
        <CharString name="glyph00761" fdSelectIndex="4">
        </CharString>
        <CharString name="glyph00762" fdSelectIndex="4">
        </CharString>
        <CharString name="glyph00763" fdSelectIndex="4">
        </CharString>
        <CharString name="glyph00764" fdSelectIndex="4">
        </CharString>
        <CharString name="glyph00765" fdSelectIndex="4">
        </CharString>
        <CharString name="glyph00766" fdSelectIndex="4">
        </CharString>
        <CharString name="glyph00767" fdSelectIndex="4">
        </CharString>
        <CharString name="glyph00768" fdSelectIndex="4">
        </CharString>
        <CharString name="glyph00769" fdSelectIndex="4">
        </CharString>
        <CharString name="glyph00770" fdSelectIndex="4">
        </CharString>
        <CharString name="glyph00771" fdSelectIndex="4">
        </CharString>
        <CharString name="glyph00772" fdSelectIndex="4">
        </CharString>
        <CharString name="glyph00773" fdSelectIndex="4">
        </CharString>
        <CharString name="glyph00774" fdSelectIndex="4">
        </CharString>
        <CharString name="glyph00776" fdSelectIndex="4">
        </CharString>
        <CharString name="glyph00777" fdSelectIndex="4">
        </CharString>
        <CharString name="glyph00778" fdSelectIndex="4">
        </CharString>
        <CharString name="glyph00779" fdSelectIndex="4">
        </CharString>
        <CharString name="glyph00780" fdSelectIndex="4">
        </CharString>
        <CharString name="glyph00781" fdSelectIndex="4">
        </CharString>
        <CharString name="glyph00782" fdSelectIndex="4">
        </CharString>
        <CharString name="glyph00783" fdSelectIndex="4">
        </CharString>
        <CharString name="glyph00784" fdSelectIndex="4">
        </CharString>
        <CharString name="glyph00785" fdSelectIndex="4">
        </CharString>
        <CharString name="glyph00786" fdSelectIndex="4">
        </CharString>
        <CharString name="glyph00787" fdSelectIndex="4">
        </CharString>
        <CharString name="glyph00788" fdSelectIndex="4">
        </CharString>
        <CharString name="glyph00789" fdSelectIndex="4">
        </CharString>
        <CharString name="glyph00790" fdSelectIndex="4">
        </CharString>
        <CharString name="glyph00791" fdSelectIndex="4">
        </CharString>
        <CharString name="glyph00792" fdSelectIndex="4">
        </CharString>
        <CharString name="glyph00793" fdSelectIndex="4">
        </CharString>
        <CharString name="glyph00794" fdSelectIndex="4">
        </CharString>
        <CharString name="glyph00795" fdSelectIndex="4">
        </CharString>
        <CharString name="glyph00796" fdSelectIndex="4">
        </CharString>
        <CharString name="glyph00797" fdSelectIndex="4">
        </CharString>
        <CharString name="glyph00798" fdSelectIndex="4">
        </CharString>
        <CharString name="glyph00799" fdSelectIndex="4">
        </CharString>
        <CharString name="glyph00800" fdSelectIndex="4">
        </CharString>
        <CharString name="glyph00801" fdSelectIndex="4">
        </CharString>
        <CharString name="glyph00802" fdSelectIndex="4">
        </CharString>
        <CharString name="glyph00803" fdSelectIndex="4">
        </CharString>
        <CharString name="glyph00804" fdSelectIndex="4">
        </CharString>
        <CharString name="glyph00805" fdSelectIndex="4">
        </CharString>
        <CharString name="glyph00806" fdSelectIndex="4">
        </CharString>
        <CharString name="glyph00807" fdSelectIndex="4">
        </CharString>
        <CharString name="glyph00808" fdSelectIndex="4">
        </CharString>
        <CharString name="glyph00809" fdSelectIndex="4">
        </CharString>
        <CharString name="glyph00810" fdSelectIndex="4">
        </CharString>
        <CharString name="glyph00811" fdSelectIndex="4">
        </CharString>
        <CharString name="glyph00812" fdSelectIndex="4">
        </CharString>
        <CharString name="glyph00813" fdSelectIndex="4">
        </CharString>
        <CharString name="glyph00814" fdSelectIndex="4">
        </CharString>
        <CharString name="glyph00815" fdSelectIndex="4">
        </CharString>
        <CharString name="glyph00816" fdSelectIndex="4">
        </CharString>
        <CharString name="glyph00817" fdSelectIndex="4">
        </CharString>
        <CharString name="glyph00818" fdSelectIndex="4">
        </CharString>
        <CharString name="glyph00819" fdSelectIndex="4">
        </CharString>
        <CharString name="glyph00820" fdSelectIndex="4">
        </CharString>
        <CharString name="glyph00821" fdSelectIndex="4">
        </CharString>
        <CharString name="glyph00822" fdSelectIndex="4">
        </CharString>
        <CharString name="glyph00823" fdSelectIndex="4">
        </CharString>
        <CharString name="glyph00824" fdSelectIndex="4">
        </CharString>
        <CharString name="glyph00825" fdSelectIndex="4">
        </CharString>
        <CharString name="glyph00826" fdSelectIndex="4">
        </CharString>
        <CharString name="glyph00827" fdSelectIndex="4">
        </CharString>
        <CharString name="glyph00828" fdSelectIndex="4">
        </CharString>
        <CharString name="glyph00829" fdSelectIndex="4">
        </CharString>
        <CharString name="glyph00831" fdSelectIndex="4">
        </CharString>
        <CharString name="glyph00832" fdSelectIndex="4">
        </CharString>
        <CharString name="glyph00833" fdSelectIndex="4">
        </CharString>
        <CharString name="glyph00834" fdSelectIndex="4">
        </CharString>
        <CharString name="glyph00835" fdSelectIndex="4">
        </CharString>
        <CharString name="glyph00836" fdSelectIndex="4">
        </CharString>
        <CharString name="glyph00837" fdSelectIndex="4">
        </CharString>
        <CharString name="glyph00838" fdSelectIndex="4">
        </CharString>
        <CharString name="glyph00839" fdSelectIndex="4">
        </CharString>
        <CharString name="glyph00840" fdSelectIndex="4">
        </CharString>
        <CharString name="glyph00841" fdSelectIndex="4">
        </CharString>
        <CharString name="glyph00842" fdSelectIndex="4">
        </CharString>
        <CharString name="glyph00843" fdSelectIndex="4">
        </CharString>
        <CharString name="glyph00844" fdSelectIndex="4">
        </CharString>
        <CharString name="glyph00845" fdSelectIndex="4">
        </CharString>
        <CharString name="glyph00846" fdSelectIndex="4">
        </CharString>
        <CharString name="glyph00847" fdSelectIndex="4">
        </CharString>
        <CharString name="glyph00848" fdSelectIndex="4">
        </CharString>
        <CharString name="glyph00849" fdSelectIndex="4">
        </CharString>
        <CharString name="glyph00850" fdSelectIndex="4">
        </CharString>
        <CharString name="glyph00851" fdSelectIndex="4">
        </CharString>
        <CharString name="glyph00852" fdSelectIndex="4">
        </CharString>
        <CharString name="glyph00853" fdSelectIndex="4">
        </CharString>
        <CharString name="glyph00854" fdSelectIndex="4">
        </CharString>
        <CharString name="glyph00855" fdSelectIndex="4">
        </CharString>
        <CharString name="glyph00856" fdSelectIndex="4">
        </CharString>
        <CharString name="glyph00857" fdSelectIndex="4">
        </CharString>
        <CharString name="glyph00858" fdSelectIndex="4">
        </CharString>
        <CharString name="glyph00859" fdSelectIndex="4">
        </CharString>
        <CharString name="glyph00860" fdSelectIndex="4">
        </CharString>
        <CharString name="glyph00861" fdSelectIndex="4">
        </CharString>
        <CharString name="glyph00862" fdSelectIndex="4">
        </CharString>
        <CharString name="glyph00863" fdSelectIndex="4">
        </CharString>
        <CharString name="glyph00864" fdSelectIndex="4">
        </CharString>
        <CharString name="glyph00865" fdSelectIndex="4">
        </CharString>
        <CharString name="glyph00866" fdSelectIndex="4">
        </CharString>
        <CharString name="glyph00867" fdSelectIndex="4">
        </CharString>
        <CharString name="glyph00868" fdSelectIndex="4">
        </CharString>
        <CharString name="glyph00869" fdSelectIndex="4">
        </CharString>
        <CharString name="glyph00870" fdSelectIndex="4">
        </CharString>
        <CharString name="glyph00871" fdSelectIndex="4">
        </CharString>
        <CharString name="glyph00872" fdSelectIndex="4">
        </CharString>
        <CharString name="glyph00873" fdSelectIndex="4">
        </CharString>
        <CharString name="glyph00874" fdSelectIndex="4">
        </CharString>
        <CharString name="glyph00875" fdSelectIndex="4">
        </CharString>
        <CharString name="glyph00876" fdSelectIndex="4">
        </CharString>
        <CharString name="glyph00877" fdSelectIndex="4">
        </CharString>
        <CharString name="glyph00878" fdSelectIndex="4">
        </CharString>
        <CharString name="glyph00879" fdSelectIndex="4">
        </CharString>
        <CharString name="glyph00880" fdSelectIndex="4">
        </CharString>
        <CharString name="glyph00881" fdSelectIndex="4">
        </CharString>
        <CharString name="glyph00882" fdSelectIndex="4">
        </CharString>
        <CharString name="glyph00883" fdSelectIndex="4">
        </CharString>
        <CharString name="glyph00884" fdSelectIndex="4">
        </CharString>
        <CharString name="glyph00885" fdSelectIndex="4">
        </CharString>
        <CharString name="glyph00886" fdSelectIndex="4">
        </CharString>
        <CharString name="glyph00887" fdSelectIndex="4">
        </CharString>
        <CharString name="glyph00888" fdSelectIndex="4">
        </CharString>
        <CharString name="glyph00889" fdSelectIndex="4">
        </CharString>
        <CharString name="glyph00890" fdSelectIndex="4">
        </CharString>
        <CharString name="glyph00891" fdSelectIndex="4">
        </CharString>
        <CharString name="glyph00892" fdSelectIndex="4">
        </CharString>
        <CharString name="glyph00893" fdSelectIndex="4">
        </CharString>
        <CharString name="glyph00894" fdSelectIndex="4">
        </CharString>
        <CharString name="glyph00895" fdSelectIndex="4">
        </CharString>
        <CharString name="glyph00896" fdSelectIndex="4">
        </CharString>
        <CharString name="glyph00897" fdSelectIndex="4">
        </CharString>
        <CharString name="glyph00898" fdSelectIndex="4">
        </CharString>
        <CharString name="glyph00899" fdSelectIndex="4">
        </CharString>
        <CharString name="glyph00900" fdSelectIndex="4">
        </CharString>
        <CharString name="glyph00901" fdSelectIndex="4">
        </CharString>
        <CharString name="glyph00902" fdSelectIndex="4">
        </CharString>
        <CharString name="glyph00903" fdSelectIndex="4">
        </CharString>
        <CharString name="glyph00904" fdSelectIndex="4">
        </CharString>
        <CharString name="glyph00905" fdSelectIndex="4">
        </CharString>
        <CharString name="glyph00906" fdSelectIndex="4">
        </CharString>
        <CharString name="glyph00907" fdSelectIndex="4">
        </CharString>
        <CharString name="glyph00908" fdSelectIndex="4">
        </CharString>
        <CharString name="glyph00909" fdSelectIndex="4">
        </CharString>
        <CharString name="glyph00910" fdSelectIndex="4">
        </CharString>
        <CharString name="glyph00911" fdSelectIndex="4">
        </CharString>
        <CharString name="glyph00912" fdSelectIndex="4">
        </CharString>
        <CharString name="glyph00913" fdSelectIndex="4">
        </CharString>
        <CharString name="glyph00914" fdSelectIndex="4">
        </CharString>
        <CharString name="glyph00915" fdSelectIndex="4">
        </CharString>
        <CharString name="glyph00916" fdSelectIndex="4">
        </CharString>
        <CharString name="glyph00917" fdSelectIndex="4">
        </CharString>
        <CharString name="glyph00918" fdSelectIndex="4">
        </CharString>
        <CharString name="glyph00919" fdSelectIndex="4">
        </CharString>
        <CharString name="glyph00920" fdSelectIndex="4">
        </CharString>
        <CharString name="glyph00921" fdSelectIndex="4">
        </CharString>
        <CharString name="glyph00922" fdSelectIndex="4">
        </CharString>
        <CharString name="glyph00923" fdSelectIndex="4">
        </CharString>
        <CharString name="glyph00924" fdSelectIndex="4">
        </CharString>
        <CharString name="glyph00925" fdSelectIndex="4">
        </CharString>
        <CharString name="glyph00926" fdSelectIndex="4">
        </CharString>
        <CharString name="glyph00927" fdSelectIndex="4">
        </CharString>
        <CharString name="glyph00928" fdSelectIndex="4">
        </CharString>
        <CharString name="glyph00929" fdSelectIndex="4">
        </CharString>
        <CharString name="glyph00930" fdSelectIndex="4">
        </CharString>
        <CharString name="glyph00931" fdSelectIndex="4">
        </CharString>
        <CharString name="glyph00932" fdSelectIndex="4">
        </CharString>
        <CharString name="glyph00933" fdSelectIndex="4">
        </CharString>
        <CharString name="glyph00934" fdSelectIndex="4">
        </CharString>
        <CharString name="glyph00935" fdSelectIndex="4">
        </CharString>
        <CharString name="glyph00936" fdSelectIndex="4">
        </CharString>
        <CharString name="glyph00938" fdSelectIndex="4">
        </CharString>
        <CharString name="glyph00940" fdSelectIndex="4">
        </CharString>
        <CharString name="glyph00941" fdSelectIndex="4">
        </CharString>
        <CharString name="glyph00942" fdSelectIndex="4">
        </CharString>
        <CharString name="glyph00943" fdSelectIndex="4">
        </CharString>
        <CharString name="glyph00944" fdSelectIndex="4">
        </CharString>
        <CharString name="glyph00945" fdSelectIndex="4">
        </CharString>
        <CharString name="glyph00946" fdSelectIndex="4">
        </CharString>
        <CharString name="glyph00947" fdSelectIndex="4">
        </CharString>
        <CharString name="glyph00948" fdSelectIndex="4">
        </CharString>
        <CharString name="glyph00949" fdSelectIndex="4">
        </CharString>
        <CharString name="glyph00950" fdSelectIndex="4">
        </CharString>
        <CharString name="glyph00951" fdSelectIndex="4">
        </CharString>
        <CharString name="glyph00952" fdSelectIndex="4">
        </CharString>
        <CharString name="glyph00953" fdSelectIndex="4">
        </CharString>
        <CharString name="glyph00954" fdSelectIndex="4">
        </CharString>
        <CharString name="glyph00955" fdSelectIndex="4">
        </CharString>
        <CharString name="glyph00956" fdSelectIndex="4">
        </CharString>
        <CharString name="glyph00957" fdSelectIndex="4">
        </CharString>
        <CharString name="glyph00958" fdSelectIndex="4">
        </CharString>
        <CharString name="glyph00959" fdSelectIndex="4">
        </CharString>
        <CharString name="glyph00960" fdSelectIndex="4">
        </CharString>
        <CharString name="glyph00961" fdSelectIndex="4">
        </CharString>
        <CharString name="glyph00962" fdSelectIndex="4">
        </CharString>
        <CharString name="glyph00963" fdSelectIndex="4">
        </CharString>
        <CharString name="glyph00964" fdSelectIndex="4">
        </CharString>
        <CharString name="glyph00965" fdSelectIndex="4">
        </CharString>
        <CharString name="glyph00966" fdSelectIndex="4">
        </CharString>
        <CharString name="glyph00967" fdSelectIndex="4">
        </CharString>
        <CharString name="glyph00968" fdSelectIndex="4">
        </CharString>
        <CharString name="glyph00969" fdSelectIndex="4">
        </CharString>
        <CharString name="glyph00970" fdSelectIndex="4">
        </CharString>
        <CharString name="glyph00971" fdSelectIndex="4">
        </CharString>
        <CharString name="glyph00972" fdSelectIndex="4">
        </CharString>
        <CharString name="glyph00973" fdSelectIndex="4">
        </CharString>
        <CharString name="glyph00974" fdSelectIndex="4">
        </CharString>
        <CharString name="glyph00975" fdSelectIndex="4">
        </CharString>
        <CharString name="glyph00976" fdSelectIndex="4">
        </CharString>
        <CharString name="glyph00977" fdSelectIndex="4">
        </CharString>
        <CharString name="glyph00978" fdSelectIndex="4">
        </CharString>
        <CharString name="glyph00979" fdSelectIndex="4">
        </CharString>
        <CharString name="glyph00980" fdSelectIndex="4">
        </CharString>
        <CharString name="glyph00981" fdSelectIndex="4">
        </CharString>
        <CharString name="glyph00982" fdSelectIndex="4">
        </CharString>
        <CharString name="glyph00983" fdSelectIndex="4">
        </CharString>
        <CharString name="glyph00984" fdSelectIndex="4">
        </CharString>
        <CharString name="glyph00985" fdSelectIndex="4">
        </CharString>
        <CharString name="glyph00986" fdSelectIndex="4">
        </CharString>
        <CharString name="glyph00987" fdSelectIndex="4">
        </CharString>
        <CharString name="glyph00988" fdSelectIndex="4">
        </CharString>
        <CharString name="glyph00989" fdSelectIndex="4">
        </CharString>
        <CharString name="glyph00990" fdSelectIndex="4">
        </CharString>
        <CharString name="glyph00991" fdSelectIndex="4">
        </CharString>
        <CharString name="glyph00992" fdSelectIndex="4">
        </CharString>
        <CharString name="glyph00993" fdSelectIndex="4">
        </CharString>
        <CharString name="glyph00994" fdSelectIndex="4">
        </CharString>
        <CharString name="glyph00995" fdSelectIndex="4">
        </CharString>
        <CharString name="glyph00996" fdSelectIndex="4">
        </CharString>
        <CharString name="glyph00997" fdSelectIndex="4">
        </CharString>
        <CharString name="glyph00998" fdSelectIndex="4">
        </CharString>
        <CharString name="glyph00999" fdSelectIndex="4">
        </CharString>
        <CharString name="glyph01000" fdSelectIndex="4">
        </CharString>
        <CharString name="glyph01001" fdSelectIndex="4">
        </CharString>
        <CharString name="glyph01002" fdSelectIndex="4">
        </CharString>
        <CharString name="glyph01003" fdSelectIndex="4">
        </CharString>
        <CharString name="glyph01004" fdSelectIndex="4">
        </CharString>
        <CharString name="glyph01005" fdSelectIndex="4">
        </CharString>
        <CharString name="glyph01006" fdSelectIndex="4">
        </CharString>
        <CharString name="glyph01007" fdSelectIndex="4">
        </CharString>
        <CharString name="glyph01008" fdSelectIndex="4">
        </CharString>
        <CharString name="glyph01009" fdSelectIndex="4">
        </CharString>
        <CharString name="glyph01010" fdSelectIndex="4">
        </CharString>
        <CharString name="glyph01011" fdSelectIndex="4">
        </CharString>
        <CharString name="glyph01013" fdSelectIndex="4">
        </CharString>
        <CharString name="glyph01014" fdSelectIndex="4">
        </CharString>
        <CharString name="glyph01016" fdSelectIndex="4">
        </CharString>
        <CharString name="glyph01017" fdSelectIndex="4">
        </CharString>
        <CharString name="glyph01018" fdSelectIndex="4">
        </CharString>
        <CharString name="glyph01019" fdSelectIndex="4">
        </CharString>
        <CharString name="glyph01020" fdSelectIndex="4">
        </CharString>
        <CharString name="glyph01021" fdSelectIndex="4">
        </CharString>
        <CharString name="glyph01022" fdSelectIndex="4">
        </CharString>
        <CharString name="glyph01023" fdSelectIndex="4">
        </CharString>
        <CharString name="glyph01024" fdSelectIndex="4">
        </CharString>
        <CharString name="glyph01025" fdSelectIndex="4">
        </CharString>
        <CharString name="glyph01026" fdSelectIndex="4">
        </CharString>
        <CharString name="glyph01027" fdSelectIndex="4">
        </CharString>
        <CharString name="glyph01028" fdSelectIndex="4">
        </CharString>
        <CharString name="glyph01029" fdSelectIndex="4">
        </CharString>
        <CharString name="glyph01030" fdSelectIndex="4">
        </CharString>
        <CharString name="glyph01031" fdSelectIndex="4">
        </CharString>
        <CharString name="glyph01032" fdSelectIndex="4">
        </CharString>
        <CharString name="glyph01033" fdSelectIndex="4">
        </CharString>
        <CharString name="glyph01034" fdSelectIndex="4">
        </CharString>
        <CharString name="glyph01035" fdSelectIndex="4">
        </CharString>
        <CharString name="glyph01036" fdSelectIndex="4">
        </CharString>
        <CharString name="glyph01037" fdSelectIndex="4">
        </CharString>
        <CharString name="glyph01038" fdSelectIndex="4">
        </CharString>
        <CharString name="glyph01039" fdSelectIndex="4">
        </CharString>
        <CharString name="glyph01040" fdSelectIndex="4">
        </CharString>
        <CharString name="glyph01041" fdSelectIndex="4">
        </CharString>
        <CharString name="glyph01042" fdSelectIndex="4">
        </CharString>
        <CharString name="glyph01043" fdSelectIndex="4">
        </CharString>
        <CharString name="glyph01044" fdSelectIndex="4">
        </CharString>
        <CharString name="glyph01045" fdSelectIndex="4">
        </CharString>
        <CharString name="glyph01046" fdSelectIndex="4">
        </CharString>
        <CharString name="glyph01047" fdSelectIndex="4">
        </CharString>
        <CharString name="glyph01048" fdSelectIndex="4">
        </CharString>
        <CharString name="glyph01049" fdSelectIndex="4">
        </CharString>
        <CharString name="glyph01050" fdSelectIndex="4">
        </CharString>
        <CharString name="glyph01051" fdSelectIndex="4">
        </CharString>
        <CharString name="glyph01052" fdSelectIndex="4">
        </CharString>
        <CharString name="glyph01053" fdSelectIndex="4">
        </CharString>
        <CharString name="glyph01054" fdSelectIndex="4">
        </CharString>
        <CharString name="glyph01055" fdSelectIndex="4">
        </CharString>
        <CharString name="glyph01056" fdSelectIndex="4">
        </CharString>
        <CharString name="glyph01057" fdSelectIndex="4">
        </CharString>
        <CharString name="glyph01058" fdSelectIndex="4">
        </CharString>
        <CharString name="glyph01059" fdSelectIndex="4">
        </CharString>
        <CharString name="glyph01060" fdSelectIndex="4">
        </CharString>
        <CharString name="glyph01061" fdSelectIndex="4">
        </CharString>
        <CharString name="glyph01062" fdSelectIndex="4">
        </CharString>
        <CharString name="glyph01063" fdSelectIndex="4">
        </CharString>
        <CharString name="glyph01064" fdSelectIndex="4">
        </CharString>
        <CharString name="glyph01065" fdSelectIndex="4">
        </CharString>
        <CharString name="glyph01066" fdSelectIndex="4">
        </CharString>
        <CharString name="glyph01067" fdSelectIndex="4">
        </CharString>
        <CharString name="glyph01068" fdSelectIndex="4">
        </CharString>
        <CharString name="glyph01069" fdSelectIndex="4">
        </CharString>
        <CharString name="glyph01070" fdSelectIndex="4">
        </CharString>
        <CharString name="glyph01071" fdSelectIndex="4">
        </CharString>
        <CharString name="glyph01072" fdSelectIndex="4">
        </CharString>
        <CharString name="glyph01073" fdSelectIndex="4">
        </CharString>
        <CharString name="glyph01074" fdSelectIndex="4">
        </CharString>
        <CharString name="glyph01075" fdSelectIndex="4">
        </CharString>
        <CharString name="glyph01076" fdSelectIndex="4">
        </CharString>
        <CharString name="glyph01077" fdSelectIndex="4">
        </CharString>
        <CharString name="glyph01078" fdSelectIndex="4">
        </CharString>
        <CharString name="glyph01079" fdSelectIndex="4">
        </CharString>
        <CharString name="glyph01080" fdSelectIndex="4">
        </CharString>
        <CharString name="glyph01081" fdSelectIndex="4">
        </CharString>
        <CharString name="glyph01082" fdSelectIndex="4">
        </CharString>
        <CharString name="glyph01083" fdSelectIndex="4">
        </CharString>
        <CharString name="glyph01084" fdSelectIndex="4">
        </CharString>
        <CharString name="glyph01085" fdSelectIndex="4">
        </CharString>
        <CharString name="glyph01086" fdSelectIndex="4">
        </CharString>
        <CharString name="glyph01087" fdSelectIndex="4">
        </CharString>
        <CharString name="glyph01088" fdSelectIndex="4">
        </CharString>
        <CharString name="glyph01089" fdSelectIndex="4">
        </CharString>
        <CharString name="glyph01090" fdSelectIndex="4">
        </CharString>
        <CharString name="glyph01091" fdSelectIndex="4">
        </CharString>
        <CharString name="glyph01092" fdSelectIndex="4">
        </CharString>
        <CharString name="glyph01093" fdSelectIndex="4">
        </CharString>
        <CharString name="glyph01094" fdSelectIndex="4">
        </CharString>
        <CharString name="glyph01095" fdSelectIndex="4">
        </CharString>
        <CharString name="glyph01096" fdSelectIndex="4">
        </CharString>
        <CharString name="glyph01097" fdSelectIndex="4">
        </CharString>
        <CharString name="glyph01098" fdSelectIndex="4">
        </CharString>
        <CharString name="glyph01099" fdSelectIndex="4">
        </CharString>
        <CharString name="glyph01100" fdSelectIndex="4">
        </CharString>
        <CharString name="glyph01101" fdSelectIndex="4">
        </CharString>
        <CharString name="glyph01102" fdSelectIndex="4">
        </CharString>
        <CharString name="glyph01103" fdSelectIndex="4">
        </CharString>
        <CharString name="glyph01104" fdSelectIndex="4">
        </CharString>
        <CharString name="glyph01105" fdSelectIndex="4">
        </CharString>
        <CharString name="glyph01106" fdSelectIndex="4">
        </CharString>
        <CharString name="glyph01107" fdSelectIndex="4">
        </CharString>
        <CharString name="glyph01108" fdSelectIndex="4">
        </CharString>
        <CharString name="glyph01109" fdSelectIndex="4">
        </CharString>
        <CharString name="glyph01110" fdSelectIndex="4">
        </CharString>
        <CharString name="glyph01111" fdSelectIndex="4">
        </CharString>
        <CharString name="glyph01112" fdSelectIndex="4">
        </CharString>
        <CharString name="glyph01113" fdSelectIndex="4">
        </CharString>
        <CharString name="glyph01114" fdSelectIndex="4">
        </CharString>
        <CharString name="glyph01115" fdSelectIndex="4">
        </CharString>
        <CharString name="glyph01116" fdSelectIndex="4">
        </CharString>
        <CharString name="glyph01117" fdSelectIndex="4">
        </CharString>
        <CharString name="glyph01118" fdSelectIndex="4">
        </CharString>
        <CharString name="glyph01119" fdSelectIndex="4">
        </CharString>
        <CharString name="glyph01120" fdSelectIndex="4">
        </CharString>
        <CharString name="glyph01121" fdSelectIndex="4">
        </CharString>
        <CharString name="glyph01122" fdSelectIndex="4">
        </CharString>
        <CharString name="glyph01123" fdSelectIndex="4">
        </CharString>
        <CharString name="glyph01124" fdSelectIndex="4">
        </CharString>
        <CharString name="glyph01125" fdSelectIndex="4">
        </CharString>
        <CharString name="glyph01126" fdSelectIndex="4">
        </CharString>
        <CharString name="glyph01127" fdSelectIndex="4">
        </CharString>
        <CharString name="glyph01128" fdSelectIndex="4">
        </CharString>
        <CharString name="glyph01129" fdSelectIndex="4">
        </CharString>
        <CharString name="glyph01130" fdSelectIndex="4">
        </CharString>
        <CharString name="glyph01131" fdSelectIndex="4">
        </CharString>
        <CharString name="glyph01132" fdSelectIndex="4">
        </CharString>
        <CharString name="glyph01133" fdSelectIndex="4">
        </CharString>
        <CharString name="glyph01134" fdSelectIndex="4">
        </CharString>
        <CharString name="glyph01135" fdSelectIndex="4">
        </CharString>
        <CharString name="glyph01136" fdSelectIndex="4">
        </CharString>
        <CharString name="glyph01137" fdSelectIndex="4">
        </CharString>
        <CharString name="glyph01138" fdSelectIndex="4">
        </CharString>
        <CharString name="glyph01139" fdSelectIndex="4">
        </CharString>
        <CharString name="glyph01140" fdSelectIndex="4">
        </CharString>
        <CharString name="glyph01141" fdSelectIndex="4">
        </CharString>
        <CharString name="glyph01142" fdSelectIndex="4">
        </CharString>
        <CharString name="glyph01143" fdSelectIndex="4">
        </CharString>
        <CharString name="glyph01144" fdSelectIndex="4">
        </CharString>
        <CharString name="glyph01145" fdSelectIndex="4">
        </CharString>
        <CharString name="glyph01146" fdSelectIndex="4">
        </CharString>
        <CharString name="glyph01147" fdSelectIndex="4">
        </CharString>
        <CharString name="glyph01148" fdSelectIndex="4">
        </CharString>
        <CharString name="glyph01149" fdSelectIndex="4">
        </CharString>
        <CharString name="glyph01150" fdSelectIndex="4">
        </CharString>
        <CharString name="glyph01151" fdSelectIndex="4">
        </CharString>
        <CharString name="glyph01152" fdSelectIndex="4">
        </CharString>
        <CharString name="glyph01153" fdSelectIndex="4">
        </CharString>
        <CharString name="glyph01154" fdSelectIndex="4">
        </CharString>
        <CharString name="glyph01155" fdSelectIndex="4">
        </CharString>
        <CharString name="glyph01156" fdSelectIndex="4">
        </CharString>
        <CharString name="glyph01157" fdSelectIndex="4">
        </CharString>
        <CharString name="glyph01158" fdSelectIndex="4">
        </CharString>
        <CharString name="glyph01159" fdSelectIndex="4">
        </CharString>
        <CharString name="glyph01160" fdSelectIndex="4">
        </CharString>
        <CharString name="glyph01161" fdSelectIndex="4">
        </CharString>
        <CharString name="glyph01162" fdSelectIndex="4">
        </CharString>
        <CharString name="glyph01163" fdSelectIndex="4">
        </CharString>
        <CharString name="glyph01164" fdSelectIndex="4">
        </CharString>
        <CharString name="glyph01165" fdSelectIndex="4">
        </CharString>
        <CharString name="glyph01166" fdSelectIndex="4">
        </CharString>
        <CharString name="glyph01167" fdSelectIndex="4">
        </CharString>
        <CharString name="glyph01168" fdSelectIndex="4">
        </CharString>
        <CharString name="glyph01169" fdSelectIndex="4">
        </CharString>
        <CharString name="glyph01170" fdSelectIndex="4">
        </CharString>
        <CharString name="glyph01171" fdSelectIndex="4">
        </CharString>
        <CharString name="glyph01172" fdSelectIndex="4">
        </CharString>
        <CharString name="glyph01173" fdSelectIndex="4">
        </CharString>
        <CharString name="glyph01174" fdSelectIndex="4">
        </CharString>
        <CharString name="glyph01175" fdSelectIndex="4">
        </CharString>
        <CharString name="glyph01176" fdSelectIndex="4">
        </CharString>
        <CharString name="glyph01177" fdSelectIndex="4">
        </CharString>
        <CharString name="glyph01178" fdSelectIndex="4">
        </CharString>
        <CharString name="glyph01179" fdSelectIndex="4">
        </CharString>
        <CharString name="glyph01181" fdSelectIndex="4">
        </CharString>
        <CharString name="glyph01182" fdSelectIndex="4">
        </CharString>
        <CharString name="glyph01183" fdSelectIndex="4">
        </CharString>
        <CharString name="glyph01184" fdSelectIndex="4">
        </CharString>
        <CharString name="glyph01185" fdSelectIndex="4">
        </CharString>
        <CharString name="glyph01186" fdSelectIndex="4">
        </CharString>
        <CharString name="glyph01187" fdSelectIndex="4">
        </CharString>
        <CharString name="glyph01188" fdSelectIndex="4">
        </CharString>
        <CharString name="glyph01189" fdSelectIndex="4">
        </CharString>
        <CharString name="glyph01190" fdSelectIndex="4">
        </CharString>
        <CharString name="glyph01191" fdSelectIndex="4">
        </CharString>
        <CharString name="glyph01192" fdSelectIndex="4">
        </CharString>
        <CharString name="glyph01193" fdSelectIndex="4">
        </CharString>
        <CharString name="glyph01194" fdSelectIndex="4">
        </CharString>
        <CharString name="glyph01195" fdSelectIndex="4">
        </CharString>
        <CharString name="glyph01196" fdSelectIndex="4">
        </CharString>
        <CharString name="glyph01197" fdSelectIndex="4">
        </CharString>
        <CharString name="glyph01198" fdSelectIndex="4">
        </CharString>
        <CharString name="glyph01199" fdSelectIndex="4">
        </CharString>
        <CharString name="glyph01200" fdSelectIndex="4">
        </CharString>
        <CharString name="glyph01201" fdSelectIndex="4">
        </CharString>
        <CharString name="glyph01202" fdSelectIndex="4">
        </CharString>
        <CharString name="glyph01203" fdSelectIndex="4">
        </CharString>
        <CharString name="glyph01204" fdSelectIndex="4">
        </CharString>
        <CharString name="glyph01205" fdSelectIndex="4">
        </CharString>
        <CharString name="glyph01206" fdSelectIndex="4">
        </CharString>
        <CharString name="glyph01207" fdSelectIndex="4">
        </CharString>
        <CharString name="glyph01208" fdSelectIndex="4">
        </CharString>
        <CharString name="glyph01209" fdSelectIndex="4">
        </CharString>
        <CharString name="glyph01210" fdSelectIndex="4">
        </CharString>
        <CharString name="glyph01211" fdSelectIndex="4">
        </CharString>
        <CharString name="glyph01212" fdSelectIndex="4">
        </CharString>
        <CharString name="glyph01213" fdSelectIndex="4">
        </CharString>
        <CharString name="glyph01214" fdSelectIndex="4">
        </CharString>
        <CharString name="glyph01215" fdSelectIndex="4">
        </CharString>
        <CharString name="glyph01216" fdSelectIndex="4">
        </CharString>
        <CharString name="glyph01217" fdSelectIndex="4">
        </CharString>
        <CharString name="glyph01218" fdSelectIndex="4">
        </CharString>
        <CharString name="glyph01219" fdSelectIndex="4">
        </CharString>
        <CharString name="glyph01220" fdSelectIndex="4">
        </CharString>
        <CharString name="glyph01221" fdSelectIndex="4">
        </CharString>
        <CharString name="glyph01222" fdSelectIndex="4">
        </CharString>
        <CharString name="glyph01223" fdSelectIndex="4">
        </CharString>
        <CharString name="glyph01224" fdSelectIndex="4">
        </CharString>
        <CharString name="glyph01225" fdSelectIndex="4">
        </CharString>
        <CharString name="glyph01226" fdSelectIndex="4">
        </CharString>
        <CharString name="glyph01227" fdSelectIndex="4">
        </CharString>
        <CharString name="glyph01228" fdSelectIndex="4">
        </CharString>
        <CharString name="glyph01229" fdSelectIndex="4">
        </CharString>
        <CharString name="glyph01230" fdSelectIndex="4">
        </CharString>
        <CharString name="glyph01231" fdSelectIndex="4">
        </CharString>
        <CharString name="glyph01232" fdSelectIndex="4">
        </CharString>
        <CharString name="glyph01233" fdSelectIndex="4">
        </CharString>
        <CharString name="glyph01234" fdSelectIndex="4">
        </CharString>
        <CharString name="glyph01235" fdSelectIndex="4">
        </CharString>
        <CharString name="glyph01236" fdSelectIndex="4">
        </CharString>
        <CharString name="glyph01237" fdSelectIndex="4">
        </CharString>
        <CharString name="glyph01238" fdSelectIndex="4">
        </CharString>
        <CharString name="glyph01239" fdSelectIndex="4">
        </CharString>
        <CharString name="glyph01240" fdSelectIndex="4">
        </CharString>
        <CharString name="glyph01241" fdSelectIndex="4">
        </CharString>
        <CharString name="glyph01242" fdSelectIndex="4">
        </CharString>
        <CharString name="glyph01243" fdSelectIndex="4">
        </CharString>
        <CharString name="glyph01244" fdSelectIndex="4">
        </CharString>
        <CharString name="glyph01245" fdSelectIndex="4">
        </CharString>
        <CharString name="glyph01246" fdSelectIndex="4">
        </CharString>
        <CharString name="glyph01247" fdSelectIndex="4">
        </CharString>
        <CharString name="glyph01248" fdSelectIndex="4">
        </CharString>
        <CharString name="glyph01249" fdSelectIndex="4">
        </CharString>
        <CharString name="glyph01250" fdSelectIndex="4">
        </CharString>
        <CharString name="glyph01251" fdSelectIndex="4">
        </CharString>
        <CharString name="glyph01252" fdSelectIndex="4">
        </CharString>
        <CharString name="glyph01253" fdSelectIndex="4">
        </CharString>
        <CharString name="glyph01254" fdSelectIndex="4">
        </CharString>
        <CharString name="glyph01255" fdSelectIndex="4">
        </CharString>
        <CharString name="glyph01256" fdSelectIndex="4">
        </CharString>
        <CharString name="glyph01257" fdSelectIndex="4">
        </CharString>
        <CharString name="glyph01258" fdSelectIndex="4">
        </CharString>
        <CharString name="glyph01259" fdSelectIndex="4">
        </CharString>
        <CharString name="glyph01260" fdSelectIndex="4">
        </CharString>
        <CharString name="glyph01261" fdSelectIndex="4">
        </CharString>
        <CharString name="glyph01262" fdSelectIndex="4">
        </CharString>
        <CharString name="glyph01263" fdSelectIndex="4">
        </CharString>
        <CharString name="glyph01264" fdSelectIndex="4">
        </CharString>
        <CharString name="glyph01265" fdSelectIndex="4">
        </CharString>
        <CharString name="glyph01266" fdSelectIndex="4">
        </CharString>
        <CharString name="glyph01267" fdSelectIndex="4">
        </CharString>
        <CharString name="glyph01268" fdSelectIndex="4">
        </CharString>
        <CharString name="glyph01269" fdSelectIndex="4">
        </CharString>
        <CharString name="glyph01270" fdSelectIndex="4">
        </CharString>
        <CharString name="glyph01271" fdSelectIndex="4">
        </CharString>
        <CharString name="glyph01272" fdSelectIndex="4">
        </CharString>
        <CharString name="glyph01273" fdSelectIndex="4">
        </CharString>
        <CharString name="glyph01274" fdSelectIndex="4">
        </CharString>
        <CharString name="glyph01275" fdSelectIndex="4">
        </CharString>
        <CharString name="glyph01276" fdSelectIndex="4">
        </CharString>
        <CharString name="glyph01277" fdSelectIndex="4">
        </CharString>
        <CharString name="glyph01278" fdSelectIndex="4">
        </CharString>
        <CharString name="glyph01279" fdSelectIndex="4">
        </CharString>
        <CharString name="glyph01281" fdSelectIndex="4">
        </CharString>
        <CharString name="glyph01282" fdSelectIndex="4">
        </CharString>
        <CharString name="glyph01283" fdSelectIndex="4">
        </CharString>
        <CharString name="glyph01284" fdSelectIndex="4">
        </CharString>
        <CharString name="glyph01285" fdSelectIndex="4">
        </CharString>
        <CharString name="glyph01286" fdSelectIndex="4">
        </CharString>
        <CharString name="glyph01287" fdSelectIndex="4">
        </CharString>
        <CharString name="glyph01288" fdSelectIndex="4">
        </CharString>
        <CharString name="glyph01289" fdSelectIndex="4">
        </CharString>
        <CharString name="glyph01290" fdSelectIndex="4">
        </CharString>
        <CharString name="glyph01291" fdSelectIndex="4">
        </CharString>
        <CharString name="glyph01292" fdSelectIndex="4">
        </CharString>
        <CharString name="glyph01293" fdSelectIndex="4">
        </CharString>
        <CharString name="glyph01294" fdSelectIndex="4">
        </CharString>
        <CharString name="glyph01295" fdSelectIndex="4">
        </CharString>
        <CharString name="glyph01296" fdSelectIndex="4">
        </CharString>
        <CharString name="glyph01297" fdSelectIndex="4">
        </CharString>
        <CharString name="glyph01298" fdSelectIndex="4">
        </CharString>
        <CharString name="glyph01299" fdSelectIndex="4">
        </CharString>
        <CharString name="glyph01300" fdSelectIndex="4">
        </CharString>
        <CharString name="glyph01301" fdSelectIndex="4">
        </CharString>
        <CharString name="glyph01302" fdSelectIndex="4">
        </CharString>
        <CharString name="glyph01303" fdSelectIndex="4">
        </CharString>
        <CharString name="glyph01304" fdSelectIndex="4">
        </CharString>
        <CharString name="glyph01305" fdSelectIndex="4">
        </CharString>
        <CharString name="glyph01306" fdSelectIndex="4">
        </CharString>
        <CharString name="glyph01307" fdSelectIndex="4">
        </CharString>
        <CharString name="glyph01308" fdSelectIndex="4">
        </CharString>
        <CharString name="glyph01309" fdSelectIndex="4">
        </CharString>
        <CharString name="glyph01310" fdSelectIndex="4">
        </CharString>
        <CharString name="glyph01311" fdSelectIndex="4">
        </CharString>
        <CharString name="glyph01312" fdSelectIndex="4">
        </CharString>
        <CharString name="glyph01313" fdSelectIndex="4">
        </CharString>
        <CharString name="glyph01314" fdSelectIndex="4">
        </CharString>
        <CharString name="glyph01315" fdSelectIndex="4">
        </CharString>
        <CharString name="glyph01316" fdSelectIndex="4">
        </CharString>
        <CharString name="glyph01317" fdSelectIndex="4">
        </CharString>
        <CharString name="glyph01318" fdSelectIndex="4">
        </CharString>
        <CharString name="glyph01319" fdSelectIndex="4">
        </CharString>
        <CharString name="glyph01320" fdSelectIndex="4">
        </CharString>
        <CharString name="glyph01321" fdSelectIndex="4">
        </CharString>
        <CharString name="glyph01322" fdSelectIndex="4">
        </CharString>
        <CharString name="glyph01323" fdSelectIndex="4">
        </CharString>
        <CharString name="glyph01324" fdSelectIndex="4">
        </CharString>
        <CharString name="glyph01325" fdSelectIndex="4">
        </CharString>
        <CharString name="glyph01326" fdSelectIndex="4">
        </CharString>
        <CharString name="glyph01327" fdSelectIndex="4">
        </CharString>
        <CharString name="glyph01328" fdSelectIndex="4">
        </CharString>
        <CharString name="glyph01329" fdSelectIndex="4">
        </CharString>
        <CharString name="glyph01330" fdSelectIndex="4">
        </CharString>
        <CharString name="glyph01331" fdSelectIndex="4">
        </CharString>
        <CharString name="glyph01332" fdSelectIndex="4">
        </CharString>
        <CharString name="glyph01333" fdSelectIndex="4">
        </CharString>
        <CharString name="glyph01334" fdSelectIndex="4">
        </CharString>
        <CharString name="glyph01335" fdSelectIndex="4">
        </CharString>
        <CharString name="glyph01336" fdSelectIndex="4">
        </CharString>
        <CharString name="glyph01337" fdSelectIndex="4">
        </CharString>
        <CharString name="glyph01338" fdSelectIndex="4">
        </CharString>
        <CharString name="glyph01339" fdSelectIndex="4">
        </CharString>
        <CharString name="glyph01340" fdSelectIndex="4">
        </CharString>
        <CharString name="glyph01341" fdSelectIndex="4">
        </CharString>
        <CharString name="glyph01342" fdSelectIndex="4">
        </CharString>
        <CharString name="glyph01343" fdSelectIndex="4">
        </CharString>
        <CharString name="glyph01344" fdSelectIndex="4">
        </CharString>
        <CharString name="glyph01345" fdSelectIndex="4">
        </CharString>
        <CharString name="glyph01346" fdSelectIndex="4">
        </CharString>
        <CharString name="glyph01347" fdSelectIndex="4">
        </CharString>
        <CharString name="glyph01348" fdSelectIndex="4">
        </CharString>
        <CharString name="glyph01349" fdSelectIndex="4">
        </CharString>
        <CharString name="glyph01350" fdSelectIndex="4">
        </CharString>
        <CharString name="glyph01351" fdSelectIndex="4">
        </CharString>
        <CharString name="glyph01352" fdSelectIndex="4">
        </CharString>
        <CharString name="glyph01353" fdSelectIndex="4">
        </CharString>
        <CharString name="glyph01354" fdSelectIndex="4">
        </CharString>
        <CharString name="glyph01355" fdSelectIndex="4">
        </CharString>
        <CharString name="glyph01356" fdSelectIndex="4">
        </CharString>
        <CharString name="glyph01357" fdSelectIndex="4">
        </CharString>
        <CharString name="glyph01358" fdSelectIndex="4">
        </CharString>
        <CharString name="glyph01359" fdSelectIndex="4">
        </CharString>
        <CharString name="glyph01360" fdSelectIndex="4">
        </CharString>
        <CharString name="glyph01361" fdSelectIndex="4">
        </CharString>
        <CharString name="glyph01362" fdSelectIndex="4">
        </CharString>
        <CharString name="glyph01363" fdSelectIndex="4">
        </CharString>
        <CharString name="glyph01364" fdSelectIndex="4">
        </CharString>
        <CharString name="glyph01365" fdSelectIndex="4">
        </CharString>
        <CharString name="glyph01366" fdSelectIndex="4">
        </CharString>
        <CharString name="glyph01367" fdSelectIndex="4">
        </CharString>
        <CharString name="glyph01368" fdSelectIndex="4">
        </CharString>
        <CharString name="glyph01369" fdSelectIndex="4">
        </CharString>
        <CharString name="glyph01370" fdSelectIndex="4">
        </CharString>
        <CharString name="glyph01371" fdSelectIndex="4">
        </CharString>
        <CharString name="glyph01372" fdSelectIndex="4">
        </CharString>
        <CharString name="glyph01373" fdSelectIndex="4">
        </CharString>
        <CharString name="glyph01374" fdSelectIndex="4">
        </CharString>
        <CharString name="glyph01375" fdSelectIndex="4">
        </CharString>
        <CharString name="glyph01376" fdSelectIndex="4">
        </CharString>
        <CharString name="glyph01377" fdSelectIndex="4">
        </CharString>
        <CharString name="glyph01378" fdSelectIndex="4">
        </CharString>
        <CharString name="glyph01379" fdSelectIndex="4">
        </CharString>
        <CharString name="glyph01380" fdSelectIndex="4">
        </CharString>
        <CharString name="glyph01381" fdSelectIndex="4">
        </CharString>
        <CharString name="glyph01382" fdSelectIndex="4">
        </CharString>
        <CharString name="glyph01383" fdSelectIndex="4">
        </CharString>
        <CharString name="glyph01384" fdSelectIndex="4">
        </CharString>
        <CharString name="glyph01385" fdSelectIndex="4">
        </CharString>
        <CharString name="glyph01386" fdSelectIndex="4">
        </CharString>
        <CharString name="glyph01387" fdSelectIndex="4">
        </CharString>
        <CharString name="glyph01388" fdSelectIndex="4">
        </CharString>
        <CharString name="glyph01389" fdSelectIndex="4">
        </CharString>
        <CharString name="glyph01390" fdSelectIndex="4">
        </CharString>
        <CharString name="glyph01391" fdSelectIndex="4">
        </CharString>
        <CharString name="glyph01392" fdSelectIndex="4">
        </CharString>
        <CharString name="glyph01393" fdSelectIndex="4">
        </CharString>
        <CharString name="glyph01394" fdSelectIndex="4">
        </CharString>
        <CharString name="glyph01395" fdSelectIndex="4">
        </CharString>
        <CharString name="glyph01396" fdSelectIndex="4">
        </CharString>
        <CharString name="glyph01397" fdSelectIndex="4">
        </CharString>
        <CharString name="glyph01398" fdSelectIndex="4">
        </CharString>
        <CharString name="glyph01399" fdSelectIndex="4">
        </CharString>
        <CharString name="glyph01400" fdSelectIndex="4">
        </CharString>
        <CharString name="glyph01401" fdSelectIndex="4">
        </CharString>
        <CharString name="glyph01402" fdSelectIndex="4">
        </CharString>
        <CharString name="glyph01403" fdSelectIndex="4">
        </CharString>
        <CharString name="glyph01404" fdSelectIndex="4">
        </CharString>
        <CharString name="glyph01405" fdSelectIndex="4">
        </CharString>
        <CharString name="glyph01406" fdSelectIndex="4">
        </CharString>
        <CharString name="glyph01407" fdSelectIndex="4">
        </CharString>
        <CharString name="glyph01408" fdSelectIndex="4">
        </CharString>
        <CharString name="glyph01409" fdSelectIndex="4">
        </CharString>
        <CharString name="glyph01410" fdSelectIndex="4">
        </CharString>
        <CharString name="glyph01411" fdSelectIndex="4">
        </CharString>
        <CharString name="glyph01412" fdSelectIndex="4">
        </CharString>
        <CharString name="glyph01413" fdSelectIndex="4">
        </CharString>
        <CharString name="glyph01414" fdSelectIndex="4">
        </CharString>
        <CharString name="glyph01415" fdSelectIndex="4">
        </CharString>
        <CharString name="glyph01416" fdSelectIndex="4">
        </CharString>
        <CharString name="glyph01417" fdSelectIndex="4">
        </CharString>
        <CharString name="glyph01418" fdSelectIndex="4">
        </CharString>
        <CharString name="glyph01419" fdSelectIndex="4">
        </CharString>
        <CharString name="glyph01420" fdSelectIndex="4">
        </CharString>
        <CharString name="glyph01421" fdSelectIndex="4">
        </CharString>
        <CharString name="glyph01423" fdSelectIndex="4">
        </CharString>
        <CharString name="glyph01424" fdSelectIndex="4">
        </CharString>
        <CharString name="glyph01425" fdSelectIndex="4">
        </CharString>
        <CharString name="glyph01426" fdSelectIndex="4">
        </CharString>
        <CharString name="glyph01427" fdSelectIndex="4">
        </CharString>
        <CharString name="glyph01428" fdSelectIndex="4">
        </CharString>
        <CharString name="glyph01429" fdSelectIndex="4">
        </CharString>
        <CharString name="glyph01430" fdSelectIndex="4">
        </CharString>
        <CharString name="glyph01431" fdSelectIndex="4">
        </CharString>
        <CharString name="glyph01432" fdSelectIndex="4">
        </CharString>
        <CharString name="glyph01433" fdSelectIndex="4">
        </CharString>
        <CharString name="glyph01434" fdSelectIndex="4">
        </CharString>
        <CharString name="glyph01435" fdSelectIndex="4">
        </CharString>
        <CharString name="glyph01436" fdSelectIndex="4">
        </CharString>
        <CharString name="glyph01437" fdSelectIndex="4">
        </CharString>
        <CharString name="glyph01438" fdSelectIndex="4">
        </CharString>
        <CharString name="glyph01439" fdSelectIndex="4">
        </CharString>
        <CharString name="glyph01440" fdSelectIndex="4">
        </CharString>
        <CharString name="glyph01441" fdSelectIndex="4">
        </CharString>
        <CharString name="glyph01442" fdSelectIndex="4">
        </CharString>
        <CharString name="glyph01443" fdSelectIndex="4">
        </CharString>
        <CharString name="glyph01444" fdSelectIndex="4">
        </CharString>
        <CharString name="glyph01445" fdSelectIndex="4">
        </CharString>
        <CharString name="glyph01446" fdSelectIndex="4">
        </CharString>
        <CharString name="glyph01447" fdSelectIndex="4">
        </CharString>
        <CharString name="glyph01448" fdSelectIndex="4">
        </CharString>
        <CharString name="glyph01449" fdSelectIndex="4">
        </CharString>
        <CharString name="glyph01450" fdSelectIndex="4">
        </CharString>
        <CharString name="glyph01451" fdSelectIndex="4">
        </CharString>
        <CharString name="glyph01452" fdSelectIndex="4">
        </CharString>
        <CharString name="glyph01453" fdSelectIndex="4">
        </CharString>
        <CharString name="glyph01454" fdSelectIndex="4">
        </CharString>
        <CharString name="glyph01455" fdSelectIndex="4">
        </CharString>
        <CharString name="glyph01456" fdSelectIndex="4">
        </CharString>
        <CharString name="glyph01457" fdSelectIndex="4">
        </CharString>
        <CharString name="glyph01458" fdSelectIndex="4">
        </CharString>
        <CharString name="glyph01459" fdSelectIndex="4">
        </CharString>
        <CharString name="glyph01460" fdSelectIndex="4">
        </CharString>
        <CharString name="glyph01461" fdSelectIndex="4">
        </CharString>
        <CharString name="glyph01462" fdSelectIndex="4">
        </CharString>
        <CharString name="glyph01463" fdSelectIndex="4">
        </CharString>
        <CharString name="glyph01464" fdSelectIndex="4">
        </CharString>
        <CharString name="glyph01466" fdSelectIndex="4">
        </CharString>
        <CharString name="glyph01467" fdSelectIndex="4">
        </CharString>
        <CharString name="glyph01468" fdSelectIndex="4">
        </CharString>
        <CharString name="glyph01469" fdSelectIndex="4">
        </CharString>
        <CharString name="glyph01470" fdSelectIndex="4">
        </CharString>
        <CharString name="glyph01471" fdSelectIndex="4">
        </CharString>
        <CharString name="glyph01472" fdSelectIndex="4">
        </CharString>
        <CharString name="glyph01473" fdSelectIndex="4">
        </CharString>
        <CharString name="glyph01474" fdSelectIndex="4">
        </CharString>
        <CharString name="glyph01475" fdSelectIndex="4">
        </CharString>
        <CharString name="glyph01477" fdSelectIndex="4">
        </CharString>
        <CharString name="glyph01478" fdSelectIndex="4">
        </CharString>
        <CharString name="glyph01479" fdSelectIndex="4">
        </CharString>
        <CharString name="glyph01480" fdSelectIndex="4">
        </CharString>
        <CharString name="glyph01481" fdSelectIndex="4">
        </CharString>
        <CharString name="glyph01482" fdSelectIndex="4">
        </CharString>
        <CharString name="glyph01483" fdSelectIndex="4">
        </CharString>
        <CharString name="glyph01484" fdSelectIndex="4">
        </CharString>
        <CharString name="glyph01485" fdSelectIndex="4">
        </CharString>
        <CharString name="glyph01486" fdSelectIndex="4">
        </CharString>
        <CharString name="glyph01487" fdSelectIndex="4">
        </CharString>
        <CharString name="glyph01488" fdSelectIndex="4">
        </CharString>
        <CharString name="glyph01489" fdSelectIndex="4">
        </CharString>
        <CharString name="glyph01490" fdSelectIndex="4">
        </CharString>
        <CharString name="glyph01491" fdSelectIndex="4">
        </CharString>
        <CharString name="glyph01492" fdSelectIndex="4">
        </CharString>
        <CharString name="glyph01493" fdSelectIndex="4">
        </CharString>
        <CharString name="glyph01494" fdSelectIndex="4">
        </CharString>
        <CharString name="glyph01495" fdSelectIndex="4">
        </CharString>
        <CharString name="glyph01496" fdSelectIndex="4">
        </CharString>
        <CharString name="glyph01497" fdSelectIndex="4">
        </CharString>
        <CharString name="glyph01498" fdSelectIndex="4">
        </CharString>
        <CharString name="glyph01499" fdSelectIndex="4">
        </CharString>
        <CharString name="glyph01500" fdSelectIndex="4">
        </CharString>
        <CharString name="glyph01501" fdSelectIndex="4">
        </CharString>
        <CharString name="glyph01502" fdSelectIndex="4">
        </CharString>
        <CharString name="glyph01503" fdSelectIndex="4">
        </CharString>
        <CharString name="glyph01504" fdSelectIndex="4">
        </CharString>
        <CharString name="glyph01505" fdSelectIndex="4">
        </CharString>
        <CharString name="glyph01506" fdSelectIndex="4">
        </CharString>
        <CharString name="glyph01507" fdSelectIndex="4">
        </CharString>
        <CharString name="glyph01508" fdSelectIndex="4">
        </CharString>
        <CharString name="glyph01509" fdSelectIndex="4">
        </CharString>
        <CharString name="glyph01510" fdSelectIndex="4">
        </CharString>
        <CharString name="glyph01511" fdSelectIndex="4">
        </CharString>
        <CharString name="glyph01512" fdSelectIndex="4">
        </CharString>
        <CharString name="glyph01513" fdSelectIndex="4">
        </CharString>
        <CharString name="glyph01514" fdSelectIndex="4">
        </CharString>
        <CharString name="glyph01515" fdSelectIndex="4">
        </CharString>
        <CharString name="glyph01516" fdSelectIndex="4">
        </CharString>
        <CharString name="glyph01517" fdSelectIndex="4">
        </CharString>
        <CharString name="glyph01518" fdSelectIndex="4">
        </CharString>
        <CharString name="glyph01519" fdSelectIndex="4">
        </CharString>
        <CharString name="glyph01520" fdSelectIndex="4">
        </CharString>
        <CharString name="glyph01521" fdSelectIndex="4">
        </CharString>
        <CharString name="glyph01522" fdSelectIndex="4">
        </CharString>
        <CharString name="glyph01523" fdSelectIndex="4">
        </CharString>
        <CharString name="glyph01524" fdSelectIndex="4">
        </CharString>
        <CharString name="glyph01525" fdSelectIndex="4">
        </CharString>
        <CharString name="glyph01526" fdSelectIndex="4">
        </CharString>
        <CharString name="glyph01527" fdSelectIndex="4">
        </CharString>
        <CharString name="glyph01528" fdSelectIndex="4">
        </CharString>
        <CharString name="glyph01529" fdSelectIndex="4">
        </CharString>
        <CharString name="glyph01530" fdSelectIndex="4">
        </CharString>
        <CharString name="glyph01531" fdSelectIndex="4">
        </CharString>
        <CharString name="glyph01532" fdSelectIndex="4">
        </CharString>
        <CharString name="glyph01533" fdSelectIndex="4">
        </CharString>
        <CharString name="glyph01534" fdSelectIndex="4">
        </CharString>
        <CharString name="glyph01535" fdSelectIndex="4">
        </CharString>
        <CharString name="glyph01536" fdSelectIndex="4">
        </CharString>
        <CharString name="glyph01537" fdSelectIndex="4">
        </CharString>
        <CharString name="glyph01538" fdSelectIndex="4">
        </CharString>
        <CharString name="glyph01539" fdSelectIndex="4">
        </CharString>
        <CharString name="glyph01540" fdSelectIndex="4">
        </CharString>
        <CharString name="glyph01541" fdSelectIndex="4">
        </CharString>
        <CharString name="glyph01542" fdSelectIndex="4">
        </CharString>
        <CharString name="glyph01543" fdSelectIndex="4">
        </CharString>
        <CharString name="glyph01544" fdSelectIndex="4">
        </CharString>
        <CharString name="glyph01545" fdSelectIndex="4">
        </CharString>
        <CharString name="glyph01546" fdSelectIndex="4">
        </CharString>
        <CharString name="glyph01547" fdSelectIndex="4">
        </CharString>
        <CharString name="glyph01548" fdSelectIndex="4">
        </CharString>
        <CharString name="glyph01549" fdSelectIndex="4">
        </CharString>
        <CharString name="glyph01550" fdSelectIndex="4">
        </CharString>
        <CharString name="glyph01551" fdSelectIndex="4">
        </CharString>
        <CharString name="glyph01552" fdSelectIndex="4">
        </CharString>
        <CharString name="glyph01553" fdSelectIndex="4">
        </CharString>
        <CharString name="glyph01554" fdSelectIndex="4">
        </CharString>
        <CharString name="glyph01555" fdSelectIndex="4">
        </CharString>
        <CharString name="glyph01556" fdSelectIndex="4">
        </CharString>
        <CharString name="glyph01557" fdSelectIndex="4">
        </CharString>
        <CharString name="glyph01558" fdSelectIndex="4">
        </CharString>
        <CharString name="glyph01559" fdSelectIndex="4">
        </CharString>
        <CharString name="glyph01560" fdSelectIndex="4">
        </CharString>
        <CharString name="glyph01561" fdSelectIndex="4">
        </CharString>
        <CharString name="glyph01562" fdSelectIndex="4">
        </CharString>
        <CharString name="glyph01563" fdSelectIndex="4">
        </CharString>
        <CharString name="glyph01564" fdSelectIndex="4">
        </CharString>
        <CharString name="glyph01565" fdSelectIndex="4">
        </CharString>
        <CharString name="glyph01566" fdSelectIndex="4">
        </CharString>
        <CharString name="glyph01567" fdSelectIndex="4">
        </CharString>
        <CharString name="glyph01568" fdSelectIndex="4">
        </CharString>
        <CharString name="glyph01569" fdSelectIndex="4">
        </CharString>
        <CharString name="glyph01570" fdSelectIndex="4">
        </CharString>
        <CharString name="glyph01571" fdSelectIndex="4">
        </CharString>
        <CharString name="glyph01572" fdSelectIndex="4">
        </CharString>
        <CharString name="glyph01573" fdSelectIndex="4">
        </CharString>
        <CharString name="glyph01574" fdSelectIndex="4">
        </CharString>
        <CharString name="glyph01575" fdSelectIndex="4">
        </CharString>
        <CharString name="glyph01576" fdSelectIndex="4">
        </CharString>
        <CharString name="glyph01577" fdSelectIndex="4">
        </CharString>
        <CharString name="glyph01578" fdSelectIndex="4">
        </CharString>
        <CharString name="glyph01579" fdSelectIndex="4">
        </CharString>
        <CharString name="glyph01580" fdSelectIndex="4">
        </CharString>
        <CharString name="glyph01581" fdSelectIndex="4">
        </CharString>
        <CharString name="glyph01582" fdSelectIndex="4">
        </CharString>
        <CharString name="glyph01583" fdSelectIndex="4">
        </CharString>
        <CharString name="glyph01584" fdSelectIndex="4">
        </CharString>
        <CharString name="glyph01585" fdSelectIndex="4">
        </CharString>
        <CharString name="glyph01586" fdSelectIndex="4">
        </CharString>
        <CharString name="glyph01587" fdSelectIndex="4">
        </CharString>
        <CharString name="glyph01588" fdSelectIndex="4">
        </CharString>
        <CharString name="glyph01589" fdSelectIndex="4">
        </CharString>
        <CharString name="glyph01590" fdSelectIndex="4">
        </CharString>
        <CharString name="glyph01591" fdSelectIndex="4">
        </CharString>
        <CharString name="glyph01592" fdSelectIndex="4">
        </CharString>
        <CharString name="glyph01593" fdSelectIndex="4">
        </CharString>
        <CharString name="glyph01594" fdSelectIndex="4">
        </CharString>
        <CharString name="glyph01595" fdSelectIndex="4">
        </CharString>
        <CharString name="glyph01596" fdSelectIndex="4">
        </CharString>
        <CharString name="glyph01597" fdSelectIndex="4">
        </CharString>
        <CharString name="glyph01598" fdSelectIndex="4">
        </CharString>
        <CharString name="glyph01599" fdSelectIndex="4">
        </CharString>
        <CharString name="glyph01600" fdSelectIndex="4">
        </CharString>
        <CharString name="glyph01601" fdSelectIndex="4">
        </CharString>
        <CharString name="glyph01602" fdSelectIndex="4">
        </CharString>
        <CharString name="glyph01603" fdSelectIndex="4">
        </CharString>
        <CharString name="glyph01604" fdSelectIndex="4">
        </CharString>
        <CharString name="glyph01605" fdSelectIndex="4">
        </CharString>
        <CharString name="glyph01606" fdSelectIndex="4">
        </CharString>
        <CharString name="glyph01607" fdSelectIndex="4">
        </CharString>
        <CharString name="glyph01608" fdSelectIndex="4">
        </CharString>
        <CharString name="glyph01609" fdSelectIndex="4">
        </CharString>
        <CharString name="glyph01610" fdSelectIndex="4">
        </CharString>
        <CharString name="glyph01611" fdSelectIndex="4">
        </CharString>
        <CharString name="glyph01612" fdSelectIndex="4">
        </CharString>
        <CharString name="glyph01613" fdSelectIndex="4">
        </CharString>
        <CharString name="glyph01614" fdSelectIndex="4">
        </CharString>
        <CharString name="glyph01615" fdSelectIndex="4">
        </CharString>
        <CharString name="glyph01616" fdSelectIndex="4">
        </CharString>
        <CharString name="glyph01617" fdSelectIndex="4">
        </CharString>
        <CharString name="glyph01618" fdSelectIndex="4">
        </CharString>
        <CharString name="glyph01619" fdSelectIndex="4">
        </CharString>
        <CharString name="glyph01620" fdSelectIndex="4">
        </CharString>
        <CharString name="glyph01621" fdSelectIndex="4">
        </CharString>
        <CharString name="glyph01622" fdSelectIndex="4">
        </CharString>
        <CharString name="glyph01623" fdSelectIndex="4">
        </CharString>
        <CharString name="glyph01624" fdSelectIndex="4">
        </CharString>
        <CharString name="glyph01625" fdSelectIndex="4">
        </CharString>
        <CharString name="glyph01626" fdSelectIndex="4">
        </CharString>
        <CharString name="glyph01627" fdSelectIndex="4">
        </CharString>
        <CharString name="glyph01628" fdSelectIndex="4">
        </CharString>
        <CharString name="glyph01629" fdSelectIndex="4">
        </CharString>
        <CharString name="glyph01630" fdSelectIndex="4">
        </CharString>
        <CharString name="glyph01631" fdSelectIndex="4">
        </CharString>
        <CharString name="glyph01632" fdSelectIndex="4">
        </CharString>
        <CharString name="glyph01633" fdSelectIndex="4">
        </CharString>
        <CharString name="glyph01634" fdSelectIndex="4">
        </CharString>
        <CharString name="glyph01635" fdSelectIndex="4">
        </CharString>
        <CharString name="glyph01636" fdSelectIndex="4">
        </CharString>
        <CharString name="glyph01637" fdSelectIndex="4">
        </CharString>
        <CharString name="glyph01638" fdSelectIndex="4">
        </CharString>
        <CharString name="glyph01639" fdSelectIndex="4">
        </CharString>
        <CharString name="glyph01640" fdSelectIndex="4">
        </CharString>
        <CharString name="glyph01641" fdSelectIndex="4">
        </CharString>
        <CharString name="glyph01642" fdSelectIndex="4">
        </CharString>
        <CharString name="glyph01643" fdSelectIndex="4">
        </CharString>
        <CharString name="glyph01644" fdSelectIndex="4">
        </CharString>
        <CharString name="glyph01645" fdSelectIndex="4">
        </CharString>
        <CharString name="glyph01646" fdSelectIndex="4">
        </CharString>
        <CharString name="glyph01647" fdSelectIndex="4">
        </CharString>
        <CharString name="glyph01648" fdSelectIndex="4">
        </CharString>
        <CharString name="glyph01649" fdSelectIndex="4">
        </CharString>
        <CharString name="glyph01650" fdSelectIndex="4">
        </CharString>
        <CharString name="glyph01651" fdSelectIndex="4">
        </CharString>
        <CharString name="glyph01652" fdSelectIndex="4">
        </CharString>
        <CharString name="glyph01653" fdSelectIndex="4">
        </CharString>
        <CharString name="glyph01654" fdSelectIndex="4">
        </CharString>
        <CharString name="glyph01655" fdSelectIndex="4">
        </CharString>
        <CharString name="glyph01656" fdSelectIndex="4">
        </CharString>
        <CharString name="glyph01657" fdSelectIndex="4">
        </CharString>
        <CharString name="glyph01658" fdSelectIndex="4">
        </CharString>
        <CharString name="glyph01659" fdSelectIndex="4">
        </CharString>
        <CharString name="glyph01660" fdSelectIndex="4">
        </CharString>
        <CharString name="glyph01661" fdSelectIndex="4">
        </CharString>
        <CharString name="glyph01662" fdSelectIndex="4">
        </CharString>
        <CharString name="glyph01663" fdSelectIndex="4">
        </CharString>
        <CharString name="glyph01664" fdSelectIndex="4">
        </CharString>
        <CharString name="glyph01666" fdSelectIndex="4">
        </CharString>
        <CharString name="glyph01667" fdSelectIndex="4">
        </CharString>
        <CharString name="glyph01668" fdSelectIndex="4">
        </CharString>
        <CharString name="glyph01669" fdSelectIndex="4">
        </CharString>
        <CharString name="glyph01670" fdSelectIndex="4">
        </CharString>
        <CharString name="glyph01671" fdSelectIndex="4">
        </CharString>
        <CharString name="glyph01672" fdSelectIndex="4">
        </CharString>
        <CharString name="glyph01673" fdSelectIndex="4">
        </CharString>
        <CharString name="glyph01674" fdSelectIndex="4">
        </CharString>
        <CharString name="glyph01675" fdSelectIndex="4">
        </CharString>
        <CharString name="glyph01676" fdSelectIndex="4">
        </CharString>
        <CharString name="glyph01677" fdSelectIndex="4">
        </CharString>
        <CharString name="glyph01678" fdSelectIndex="4">
        </CharString>
        <CharString name="glyph01679" fdSelectIndex="4">
        </CharString>
        <CharString name="glyph01681" fdSelectIndex="4">
        </CharString>
        <CharString name="glyph01682" fdSelectIndex="4">
        </CharString>
        <CharString name="glyph01683" fdSelectIndex="4">
        </CharString>
        <CharString name="glyph01684" fdSelectIndex="4">
        </CharString>
        <CharString name="glyph01685" fdSelectIndex="4">
        </CharString>
        <CharString name="glyph01686" fdSelectIndex="4">
        </CharString>
        <CharString name="glyph01687" fdSelectIndex="4">
        </CharString>
        <CharString name="glyph01688" fdSelectIndex="4">
        </CharString>
        <CharString name="glyph01689" fdSelectIndex="4">
        </CharString>
        <CharString name="glyph01690" fdSelectIndex="4">
        </CharString>
        <CharString name="glyph01692" fdSelectIndex="4">
        </CharString>
        <CharString name="glyph01693" fdSelectIndex="4">
        </CharString>
        <CharString name="glyph01694" fdSelectIndex="4">
        </CharString>
        <CharString name="glyph01695" fdSelectIndex="4">
        </CharString>
        <CharString name="glyph01696" fdSelectIndex="4">
        </CharString>
        <CharString name="glyph01697" fdSelectIndex="4">
        </CharString>
        <CharString name="glyph01698" fdSelectIndex="4">
        </CharString>
        <CharString name="glyph01700" fdSelectIndex="4">
        </CharString>
        <CharString name="glyph01701" fdSelectIndex="4">
        </CharString>
        <CharString name="glyph01702" fdSelectIndex="4">
        </CharString>
        <CharString name="glyph01703" fdSelectIndex="4">
        </CharString>
        <CharString name="glyph01704" fdSelectIndex="4">
        </CharString>
        <CharString name="glyph01705" fdSelectIndex="4">
        </CharString>
        <CharString name="glyph01706" fdSelectIndex="4">
        </CharString>
        <CharString name="glyph01707" fdSelectIndex="4">
        </CharString>
        <CharString name="glyph01708" fdSelectIndex="4">
        </CharString>
        <CharString name="glyph01709" fdSelectIndex="4">
        </CharString>
        <CharString name="glyph01710" fdSelectIndex="4">
        </CharString>
        <CharString name="glyph01711" fdSelectIndex="4">
        </CharString>
        <CharString name="glyph01712" fdSelectIndex="4">
        </CharString>
        <CharString name="glyph01713" fdSelectIndex="4">
        </CharString>
        <CharString name="glyph01714" fdSelectIndex="4">
        </CharString>
        <CharString name="glyph01715" fdSelectIndex="4">
        </CharString>
        <CharString name="glyph01716" fdSelectIndex="4">
        </CharString>
        <CharString name="glyph01718" fdSelectIndex="4">
        </CharString>
        <CharString name="glyph01719" fdSelectIndex="4">
        </CharString>
        <CharString name="glyph01720" fdSelectIndex="4">
        </CharString>
        <CharString name="glyph01721" fdSelectIndex="4">
        </CharString>
        <CharString name="glyph01722" fdSelectIndex="4">
        </CharString>
        <CharString name="glyph01723" fdSelectIndex="4">
        </CharString>
        <CharString name="glyph01724" fdSelectIndex="4">
        </CharString>
        <CharString name="glyph01725" fdSelectIndex="4">
        </CharString>
        <CharString name="glyph01726" fdSelectIndex="4">
        </CharString>
        <CharString name="glyph01727" fdSelectIndex="4">
        </CharString>
        <CharString name="glyph01728" fdSelectIndex="4">
        </CharString>
        <CharString name="glyph01729" fdSelectIndex="4">
        </CharString>
        <CharString name="glyph01730" fdSelectIndex="4">
        </CharString>
        <CharString name="glyph01731" fdSelectIndex="4">
        </CharString>
        <CharString name="glyph01732" fdSelectIndex="4">
        </CharString>
        <CharString name="glyph01733" fdSelectIndex="4">
        </CharString>
        <CharString name="glyph01734" fdSelectIndex="4">
        </CharString>
        <CharString name="glyph01735" fdSelectIndex="4">
        </CharString>
        <CharString name="glyph01736" fdSelectIndex="4">
        </CharString>
        <CharString name="glyph01737" fdSelectIndex="4">
        </CharString>
        <CharString name="glyph01738" fdSelectIndex="4">
        </CharString>
        <CharString name="glyph01739" fdSelectIndex="4">
        </CharString>
        <CharString name="glyph01740" fdSelectIndex="4">
        </CharString>
        <CharString name="glyph01741" fdSelectIndex="4">
        </CharString>
        <CharString name="glyph01742" fdSelectIndex="4">
        </CharString>
        <CharString name="glyph01743" fdSelectIndex="4">
        </CharString>
        <CharString name="glyph01744" fdSelectIndex="4">
        </CharString>
        <CharString name="glyph01745" fdSelectIndex="4">
        </CharString>
        <CharString name="glyph01746" fdSelectIndex="4">
        </CharString>
        <CharString name="glyph01747" fdSelectIndex="4">
        </CharString>
        <CharString name="glyph01748" fdSelectIndex="4">
        </CharString>
        <CharString name="glyph01749" fdSelectIndex="4">
        </CharString>
        <CharString name="glyph01750" fdSelectIndex="4">
        </CharString>
        <CharString name="glyph01752" fdSelectIndex="4">
        </CharString>
        <CharString name="glyph01753" fdSelectIndex="4">
        </CharString>
        <CharString name="glyph01754" fdSelectIndex="4">
        </CharString>
        <CharString name="glyph01755" fdSelectIndex="4">
        </CharString>
        <CharString name="glyph01756" fdSelectIndex="4">
        </CharString>
        <CharString name="glyph01757" fdSelectIndex="4">
        </CharString>
        <CharString name="glyph01758" fdSelectIndex="4">
        </CharString>
        <CharString name="glyph01759" fdSelectIndex="4">
        </CharString>
        <CharString name="glyph01761" fdSelectIndex="4">
        </CharString>
        <CharString name="glyph01762" fdSelectIndex="4">
        </CharString>
        <CharString name="glyph01763" fdSelectIndex="4">
        </CharString>
        <CharString name="glyph01764" fdSelectIndex="4">
        </CharString>
        <CharString name="glyph01765" fdSelectIndex="4">
        </CharString>
        <CharString name="glyph01766" fdSelectIndex="4">
        </CharString>
        <CharString name="glyph01767" fdSelectIndex="4">
        </CharString>
        <CharString name="glyph01768" fdSelectIndex="4">
        </CharString>
        <CharString name="glyph01769" fdSelectIndex="4">
        </CharString>
        <CharString name="glyph01770" fdSelectIndex="4">
        </CharString>
        <CharString name="glyph01772" fdSelectIndex="4">
        </CharString>
        <CharString name="glyph01773" fdSelectIndex="4">
        </CharString>
        <CharString name="glyph01774" fdSelectIndex="4">
        </CharString>
        <CharString name="glyph01775" fdSelectIndex="4">
        </CharString>
        <CharString name="glyph01776" fdSelectIndex="4">
        </CharString>
        <CharString name="glyph01777" fdSelectIndex="4">
        </CharString>
        <CharString name="glyph01778" fdSelectIndex="4">
        </CharString>
        <CharString name="glyph01779" fdSelectIndex="4">
        </CharString>
        <CharString name="glyph01780" fdSelectIndex="4">
        </CharString>
        <CharString name="glyph01781" fdSelectIndex="4">
        </CharString>
        <CharString name="glyph01782" fdSelectIndex="4">
        </CharString>
        <CharString name="glyph01783" fdSelectIndex="4">
        </CharString>
        <CharString name="glyph01784" fdSelectIndex="4">
        </CharString>
        <CharString name="glyph01785" fdSelectIndex="4">
        </CharString>
        <CharString name="glyph01786" fdSelectIndex="4">
        </CharString>
        <CharString name="glyph01787" fdSelectIndex="4">
        </CharString>
        <CharString name="glyph01788" fdSelectIndex="4">
        </CharString>
        <CharString name="glyph01789" fdSelectIndex="4">
        </CharString>
        <CharString name="glyph01790" fdSelectIndex="4">
        </CharString>
        <CharString name="glyph01791" fdSelectIndex="4">
        </CharString>
        <CharString name="glyph01792" fdSelectIndex="4">
        </CharString>
        <CharString name="glyph01793" fdSelectIndex="4">
        </CharString>
        <CharString name="glyph01794" fdSelectIndex="4">
        </CharString>
        <CharString name="glyph01795" fdSelectIndex="4">
        </CharString>
        <CharString name="glyph01796" fdSelectIndex="4">
        </CharString>
        <CharString name="glyph01797" fdSelectIndex="4">
        </CharString>
        <CharString name="glyph01798" fdSelectIndex="4">
        </CharString>
        <CharString name="glyph01799" fdSelectIndex="4">
        </CharString>
        <CharString name="glyph01800" fdSelectIndex="4">
        </CharString>
        <CharString name="glyph01801" fdSelectIndex="4">
        </CharString>
        <CharString name="glyph01802" fdSelectIndex="4">
        </CharString>
        <CharString name="glyph01803" fdSelectIndex="4">
        </CharString>
        <CharString name="glyph01804" fdSelectIndex="4">
        </CharString>
        <CharString name="glyph01805" fdSelectIndex="4">
        </CharString>
        <CharString name="glyph01806" fdSelectIndex="4">
        </CharString>
        <CharString name="glyph01807" fdSelectIndex="4">
        </CharString>
        <CharString name="glyph01808" fdSelectIndex="4">
        </CharString>
        <CharString name="glyph01809" fdSelectIndex="4">
        </CharString>
        <CharString name="glyph01810" fdSelectIndex="4">
        </CharString>
        <CharString name="glyph01811" fdSelectIndex="4">
        </CharString>
        <CharString name="glyph01812" fdSelectIndex="4">
        </CharString>
        <CharString name="glyph01813" fdSelectIndex="4">
        </CharString>
        <CharString name="glyph01814" fdSelectIndex="4">
        </CharString>
        <CharString name="glyph01815" fdSelectIndex="4">
        </CharString>
        <CharString name="glyph01816" fdSelectIndex="4">
        </CharString>
        <CharString name="glyph01817" fdSelectIndex="4">
        </CharString>
        <CharString name="glyph01818" fdSelectIndex="4">
        </CharString>
        <CharString name="glyph01819" fdSelectIndex="4">
        </CharString>
        <CharString name="glyph01820" fdSelectIndex="4">
        </CharString>
        <CharString name="glyph01821" fdSelectIndex="4">
        </CharString>
        <CharString name="glyph01822" fdSelectIndex="4">
        </CharString>
        <CharString name="glyph01823" fdSelectIndex="4">
        </CharString>
        <CharString name="glyph01824" fdSelectIndex="4">
        </CharString>
        <CharString name="glyph01825" fdSelectIndex="4">
        </CharString>
        <CharString name="glyph01826" fdSelectIndex="4">
        </CharString>
        <CharString name="glyph01827" fdSelectIndex="4">
        </CharString>
        <CharString name="glyph01828" fdSelectIndex="4">
        </CharString>
        <CharString name="glyph01829" fdSelectIndex="4">
        </CharString>
        <CharString name="glyph01830" fdSelectIndex="4">
        </CharString>
        <CharString name="glyph01831" fdSelectIndex="4">
        </CharString>
        <CharString name="glyph01832" fdSelectIndex="4">
        </CharString>
        <CharString name="glyph01833" fdSelectIndex="4">
        </CharString>
        <CharString name="glyph01834" fdSelectIndex="4">
        </CharString>
        <CharString name="glyph01835" fdSelectIndex="4">
        </CharString>
        <CharString name="glyph01836" fdSelectIndex="4">
        </CharString>
        <CharString name="glyph01837" fdSelectIndex="4">
        </CharString>
        <CharString name="glyph01838" fdSelectIndex="4">
        </CharString>
        <CharString name="glyph01839" fdSelectIndex="4">
        </CharString>
        <CharString name="glyph01840" fdSelectIndex="4">
        </CharString>
        <CharString name="glyph01841" fdSelectIndex="4">
        </CharString>
        <CharString name="glyph01842" fdSelectIndex="4">
        </CharString>
        <CharString name="glyph01843" fdSelectIndex="4">
        </CharString>
        <CharString name="glyph01844" fdSelectIndex="4">
        </CharString>
        <CharString name="glyph01845" fdSelectIndex="4">
        </CharString>
        <CharString name="glyph01846" fdSelectIndex="4">
        </CharString>
        <CharString name="glyph01847" fdSelectIndex="4">
        </CharString>
        <CharString name="glyph01848" fdSelectIndex="4">
        </CharString>
        <CharString name="glyph01849" fdSelectIndex="4">
        </CharString>
        <CharString name="glyph01850" fdSelectIndex="4">
        </CharString>
        <CharString name="glyph01851" fdSelectIndex="4">
        </CharString>
        <CharString name="glyph01852" fdSelectIndex="4">
        </CharString>
        <CharString name="glyph01853" fdSelectIndex="4">
        </CharString>
        <CharString name="glyph01854" fdSelectIndex="4">
        </CharString>
        <CharString name="glyph01855" fdSelectIndex="4">
        </CharString>
        <CharString name="glyph01856" fdSelectIndex="4">
        </CharString>
        <CharString name="glyph01857" fdSelectIndex="4">
        </CharString>
        <CharString name="glyph01858" fdSelectIndex="4">
        </CharString>
        <CharString name="glyph01859" fdSelectIndex="4">
        </CharString>
        <CharString name="glyph01860" fdSelectIndex="4">
        </CharString>
        <CharString name="glyph01861" fdSelectIndex="4">
        </CharString>
        <CharString name="glyph01862" fdSelectIndex="4">
        </CharString>
        <CharString name="glyph01863" fdSelectIndex="4">
        </CharString>
        <CharString name="glyph01864" fdSelectIndex="4">
        </CharString>
        <CharString name="glyph01865" fdSelectIndex="4">
        </CharString>
        <CharString name="glyph01866" fdSelectIndex="4">
        </CharString>
        <CharString name="glyph01867" fdSelectIndex="4">
        </CharString>
        <CharString name="glyph01868" fdSelectIndex="4">
        </CharString>
        <CharString name="glyph01869" fdSelectIndex="4">
        </CharString>
        <CharString name="glyph01870" fdSelectIndex="4">
        </CharString>
        <CharString name="glyph01871" fdSelectIndex="4">
        </CharString>
        <CharString name="glyph01872" fdSelectIndex="4">
        </CharString>
        <CharString name="glyph01873" fdSelectIndex="4">
        </CharString>
        <CharString name="glyph01874" fdSelectIndex="4">
        </CharString>
        <CharString name="glyph01875" fdSelectIndex="4">
        </CharString>
        <CharString name="glyph01876" fdSelectIndex="4">
        </CharString>
        <CharString name="glyph01877" fdSelectIndex="4">
        </CharString>
        <CharString name="glyph01878" fdSelectIndex="4">
        </CharString>
        <CharString name="glyph01879" fdSelectIndex="4">
        </CharString>
        <CharString name="glyph01880" fdSelectIndex="4">
        </CharString>
        <CharString name="glyph01881" fdSelectIndex="4">
        </CharString>
        <CharString name="glyph01882" fdSelectIndex="4">
        </CharString>
        <CharString name="glyph01883" fdSelectIndex="4">
        </CharString>
        <CharString name="glyph01884" fdSelectIndex="4">
        </CharString>
        <CharString name="glyph01885" fdSelectIndex="4">
        </CharString>
        <CharString name="glyph01886" fdSelectIndex="4">
        </CharString>
        <CharString name="glyph01887" fdSelectIndex="4">
        </CharString>
        <CharString name="glyph01888" fdSelectIndex="4">
        </CharString>
        <CharString name="glyph01889" fdSelectIndex="4">
        </CharString>
        <CharString name="glyph01890" fdSelectIndex="4">
        </CharString>
        <CharString name="glyph01891" fdSelectIndex="4">
        </CharString>
        <CharString name="glyph01892" fdSelectIndex="4">
        </CharString>
        <CharString name="glyph01893" fdSelectIndex="4">
        </CharString>
        <CharString name="glyph01894" fdSelectIndex="4">
        </CharString>
        <CharString name="glyph01895" fdSelectIndex="4">
        </CharString>
        <CharString name="glyph01896" fdSelectIndex="4">
        </CharString>
        <CharString name="glyph01897" fdSelectIndex="4">
        </CharString>
        <CharString name="glyph01898" fdSelectIndex="4">
        </CharString>
        <CharString name="glyph01899" fdSelectIndex="4">
        </CharString>
        <CharString name="glyph01900" fdSelectIndex="4">
        </CharString>
        <CharString name="glyph01901" fdSelectIndex="4">
        </CharString>
        <CharString name="glyph01902" fdSelectIndex="4">
        </CharString>
        <CharString name="glyph01903" fdSelectIndex="4">
        </CharString>
        <CharString name="glyph01904" fdSelectIndex="4">
        </CharString>
        <CharString name="glyph01905" fdSelectIndex="4">
        </CharString>
        <CharString name="glyph01906" fdSelectIndex="4">
        </CharString>
        <CharString name="glyph01907" fdSelectIndex="4">
        </CharString>
        <CharString name="glyph01908" fdSelectIndex="4">
        </CharString>
        <CharString name="glyph01909" fdSelectIndex="4">
        </CharString>
        <CharString name="glyph01910" fdSelectIndex="4">
        </CharString>
        <CharString name="glyph01911" fdSelectIndex="4">
        </CharString>
        <CharString name="glyph01912" fdSelectIndex="4">
        </CharString>
        <CharString name="glyph01913" fdSelectIndex="4">
        </CharString>
        <CharString name="glyph01914" fdSelectIndex="4">
        </CharString>
        <CharString name="glyph01915" fdSelectIndex="4">
        </CharString>
        <CharString name="glyph01916" fdSelectIndex="4">
        </CharString>
        <CharString name="glyph01917" fdSelectIndex="4">
        </CharString>
        <CharString name="glyph01918" fdSelectIndex="4">
        </CharString>
        <CharString name="glyph01919" fdSelectIndex="4">
        </CharString>
        <CharString name="glyph01920" fdSelectIndex="4">
        </CharString>
        <CharString name="glyph01921" fdSelectIndex="4">
        </CharString>
        <CharString name="glyph01922" fdSelectIndex="4">
        </CharString>
        <CharString name="glyph01923" fdSelectIndex="4">
        </CharString>
        <CharString name="glyph01924" fdSelectIndex="4">
        </CharString>
        <CharString name="glyph01925" fdSelectIndex="4">
        </CharString>
        <CharString name="glyph01926" fdSelectIndex="4">
        </CharString>
        <CharString name="glyph01927" fdSelectIndex="4">
        </CharString>
        <CharString name="glyph01928" fdSelectIndex="4">
        </CharString>
        <CharString name="glyph01929" fdSelectIndex="4">
        </CharString>
        <CharString name="glyph01930" fdSelectIndex="4">
        </CharString>
        <CharString name="glyph01931" fdSelectIndex="4">
        </CharString>
        <CharString name="glyph01932" fdSelectIndex="4">
        </CharString>
        <CharString name="glyph01933" fdSelectIndex="4">
        </CharString>
        <CharString name="glyph01934" fdSelectIndex="4">
        </CharString>
        <CharString name="glyph01935" fdSelectIndex="4">
        </CharString>
        <CharString name="glyph01936" fdSelectIndex="4">
        </CharString>
        <CharString name="glyph01937" fdSelectIndex="4">
        </CharString>
        <CharString name="glyph01938" fdSelectIndex="4">
        </CharString>
        <CharString name="glyph01939" fdSelectIndex="4">
        </CharString>
        <CharString name="glyph01940" fdSelectIndex="4">
        </CharString>
        <CharString name="glyph01941" fdSelectIndex="4">
        </CharString>
        <CharString name="glyph01942" fdSelectIndex="4">
        </CharString>
        <CharString name="glyph01943" fdSelectIndex="4">
        </CharString>
        <CharString name="glyph01944" fdSelectIndex="4">
        </CharString>
        <CharString name="glyph01945" fdSelectIndex="4">
        </CharString>
        <CharString name="glyph01946" fdSelectIndex="4">
        </CharString>
        <CharString name="glyph01947" fdSelectIndex="4">
        </CharString>
        <CharString name="glyph01948" fdSelectIndex="4">
        </CharString>
        <CharString name="glyph01949" fdSelectIndex="4">
        </CharString>
        <CharString name="glyph01950" fdSelectIndex="4">
        </CharString>
        <CharString name="glyph01951" fdSelectIndex="4">
        </CharString>
        <CharString name="glyph01952" fdSelectIndex="4">
        </CharString>
        <CharString name="glyph01953" fdSelectIndex="4">
        </CharString>
        <CharString name="glyph01954" fdSelectIndex="4">
        </CharString>
        <CharString name="glyph01955" fdSelectIndex="4">
        </CharString>
        <CharString name="glyph01956" fdSelectIndex="4">
        </CharString>
        <CharString name="glyph01957" fdSelectIndex="4">
        </CharString>
        <CharString name="glyph01958" fdSelectIndex="4">
        </CharString>
        <CharString name="glyph01959" fdSelectIndex="4">
        </CharString>
        <CharString name="glyph01960" fdSelectIndex="4">
        </CharString>
        <CharString name="glyph01961" fdSelectIndex="4">
        </CharString>
        <CharString name="glyph01962" fdSelectIndex="4">
        </CharString>
        <CharString name="glyph01963" fdSelectIndex="4">
        </CharString>
        <CharString name="glyph01964" fdSelectIndex="4">
        </CharString>
        <CharString name="glyph01965" fdSelectIndex="4">
        </CharString>
        <CharString name="glyph01966" fdSelectIndex="4">
        </CharString>
        <CharString name="glyph01967" fdSelectIndex="4">
        </CharString>
        <CharString name="glyph01968" fdSelectIndex="4">
        </CharString>
        <CharString name="glyph01969" fdSelectIndex="4">
        </CharString>
        <CharString name="glyph01970" fdSelectIndex="4">
        </CharString>
        <CharString name="glyph01971" fdSelectIndex="4">
        </CharString>
        <CharString name="glyph01972" fdSelectIndex="4">
        </CharString>
        <CharString name="glyph01973" fdSelectIndex="4">
        </CharString>
        <CharString name="glyph01974" fdSelectIndex="4">
        </CharString>
        <CharString name="glyph01975" fdSelectIndex="4">
        </CharString>
        <CharString name="glyph01976" fdSelectIndex="4">
        </CharString>
        <CharString name="glyph01977" fdSelectIndex="4">
        </CharString>
        <CharString name="glyph01978" fdSelectIndex="4">
        </CharString>
        <CharString name="glyph01979" fdSelectIndex="4">
        </CharString>
        <CharString name="glyph01980" fdSelectIndex="4">
        </CharString>
        <CharString name="glyph01981" fdSelectIndex="4">
        </CharString>
        <CharString name="glyph01982" fdSelectIndex="4">
        </CharString>
        <CharString name="glyph01983" fdSelectIndex="4">
        </CharString>
        <CharString name="glyph01984" fdSelectIndex="4">
        </CharString>
        <CharString name="glyph01985" fdSelectIndex="4">
        </CharString>
        <CharString name="glyph01986" fdSelectIndex="4">
        </CharString>
        <CharString name="glyph01987" fdSelectIndex="4">
        </CharString>
        <CharString name="glyph01988" fdSelectIndex="4">
        </CharString>
        <CharString name="glyph01989" fdSelectIndex="4">
        </CharString>
        <CharString name="glyph01990" fdSelectIndex="4">
        </CharString>
        <CharString name="glyph01991" fdSelectIndex="4">
        </CharString>
        <CharString name="glyph01992" fdSelectIndex="4">
        </CharString>
        <CharString name="glyph01993" fdSelectIndex="4">
        </CharString>
        <CharString name="glyph01994" fdSelectIndex="4">
        </CharString>
        <CharString name="glyph01995" fdSelectIndex="4">
        </CharString>
        <CharString name="glyph01996" fdSelectIndex="4">
        </CharString>
        <CharString name="glyph01997" fdSelectIndex="4">
        </CharString>
        <CharString name="glyph01998" fdSelectIndex="4">
        </CharString>
        <CharString name="glyph01999" fdSelectIndex="4">
        </CharString>
        <CharString name="glyph02000" fdSelectIndex="4">
        </CharString>
        <CharString name="glyph02001" fdSelectIndex="4">
        </CharString>
        <CharString name="glyph02002" fdSelectIndex="4">
        </CharString>
        <CharString name="glyph02003" fdSelectIndex="4">
        </CharString>
        <CharString name="glyph02004" fdSelectIndex="4">
        </CharString>
        <CharString name="glyph02005" fdSelectIndex="4">
        </CharString>
        <CharString name="glyph02006" fdSelectIndex="4">
        </CharString>
        <CharString name="glyph02007" fdSelectIndex="4">
        </CharString>
        <CharString name="glyph02008" fdSelectIndex="4">
        </CharString>
        <CharString name="glyph02009" fdSelectIndex="4">
        </CharString>
        <CharString name="glyph02010" fdSelectIndex="4">
        </CharString>
        <CharString name="glyph02011" fdSelectIndex="4">
        </CharString>
        <CharString name="glyph02012" fdSelectIndex="4">
        </CharString>
        <CharString name="glyph02013" fdSelectIndex="4">
        </CharString>
        <CharString name="glyph02014" fdSelectIndex="4">
        </CharString>
        <CharString name="glyph02015" fdSelectIndex="4">
        </CharString>
        <CharString name="glyph02016" fdSelectIndex="4">
        </CharString>
        <CharString name="glyph02017" fdSelectIndex="4">
        </CharString>
        <CharString name="glyph02018" fdSelectIndex="4">
        </CharString>
        <CharString name="glyph02019" fdSelectIndex="4">
        </CharString>
        <CharString name="glyph02020" fdSelectIndex="4">
        </CharString>
        <CharString name="glyph02021" fdSelectIndex="4">
        </CharString>
        <CharString name="glyph02022" fdSelectIndex="4">
        </CharString>
        <CharString name="glyph02023" fdSelectIndex="4">
        </CharString>
        <CharString name="glyph02024" fdSelectIndex="4">
        </CharString>
        <CharString name="glyph02025" fdSelectIndex="4">
        </CharString>
        <CharString name="glyph02026" fdSelectIndex="4">
        </CharString>
        <CharString name="glyph02027" fdSelectIndex="4">
        </CharString>
        <CharString name="glyph02028" fdSelectIndex="4">
        </CharString>
        <CharString name="glyph02029" fdSelectIndex="4">
        </CharString>
        <CharString name="glyph02030" fdSelectIndex="4">
        </CharString>
        <CharString name="glyph02031" fdSelectIndex="4">
        </CharString>
        <CharString name="glyph02032" fdSelectIndex="4">
        </CharString>
        <CharString name="glyph02033" fdSelectIndex="4">
        </CharString>
        <CharString name="glyph02034" fdSelectIndex="4">
        </CharString>
        <CharString name="glyph02035" fdSelectIndex="4">
        </CharString>
        <CharString name="glyph02036" fdSelectIndex="4">
        </CharString>
        <CharString name="glyph02037" fdSelectIndex="4">
        </CharString>
        <CharString name="glyph02038" fdSelectIndex="4">
        </CharString>
        <CharString name="glyph02039" fdSelectIndex="4">
        </CharString>
        <CharString name="glyph02040" fdSelectIndex="4">
        </CharString>
        <CharString name="glyph02041" fdSelectIndex="4">
        </CharString>
        <CharString name="glyph02042" fdSelectIndex="4">
        </CharString>
        <CharString name="glyph02043" fdSelectIndex="4">
        </CharString>
        <CharString name="glyph02044" fdSelectIndex="4">
        </CharString>
        <CharString name="glyph02045" fdSelectIndex="4">
        </CharString>
        <CharString name="glyph02046" fdSelectIndex="4">
        </CharString>
        <CharString name="glyph02047" fdSelectIndex="4">
        </CharString>
        <CharString name="glyph02048" fdSelectIndex="4">
        </CharString>
        <CharString name="glyph02049" fdSelectIndex="4">
        </CharString>
        <CharString name="glyph02050" fdSelectIndex="4">
        </CharString>
        <CharString name="glyph02051" fdSelectIndex="4">
        </CharString>
        <CharString name="glyph02052" fdSelectIndex="4">
        </CharString>
        <CharString name="glyph02053" fdSelectIndex="4">
        </CharString>
        <CharString name="glyph02054" fdSelectIndex="4">
        </CharString>
        <CharString name="glyph02055" fdSelectIndex="4">
        </CharString>
        <CharString name="glyph02056" fdSelectIndex="4">
        </CharString>
        <CharString name="glyph02057" fdSelectIndex="4">
        </CharString>
        <CharString name="glyph02058" fdSelectIndex="4">
        </CharString>
        <CharString name="glyph02059" fdSelectIndex="4">
        </CharString>
        <CharString name="glyph02060" fdSelectIndex="4">
        </CharString>
        <CharString name="glyph02061" fdSelectIndex="4">
        </CharString>
        <CharString name="glyph02062" fdSelectIndex="4">
        </CharString>
        <CharString name="glyph02063" fdSelectIndex="4">
        </CharString>
        <CharString name="glyph02064" fdSelectIndex="4">
        </CharString>
        <CharString name="glyph02065" fdSelectIndex="4">
        </CharString>
        <CharString name="glyph02066" fdSelectIndex="4">
        </CharString>
        <CharString name="glyph02067" fdSelectIndex="4">
        </CharString>
        <CharString name="glyph02068" fdSelectIndex="4">
        </CharString>
        <CharString name="glyph02069" fdSelectIndex="4">
        </CharString>
        <CharString name="glyph02070" fdSelectIndex="4">
        </CharString>
        <CharString name="glyph02071" fdSelectIndex="4">
        </CharString>
        <CharString name="glyph02072" fdSelectIndex="4">
        </CharString>
        <CharString name="glyph02073" fdSelectIndex="4">
        </CharString>
        <CharString name="glyph02074" fdSelectIndex="4">
        </CharString>
        <CharString name="glyph02075" fdSelectIndex="4">
        </CharString>
        <CharString name="glyph02076" fdSelectIndex="4">
        </CharString>
        <CharString name="glyph02077" fdSelectIndex="4">
        </CharString>
        <CharString name="glyph02078" fdSelectIndex="4">
        </CharString>
        <CharString name="glyph02079" fdSelectIndex="4">
        </CharString>
        <CharString name="glyph02080" fdSelectIndex="4">
        </CharString>
        <CharString name="glyph02081" fdSelectIndex="4">
        </CharString>
        <CharString name="glyph02082" fdSelectIndex="4">
        </CharString>
        <CharString name="glyph02083" fdSelectIndex="4">
        </CharString>
        <CharString name="glyph02084" fdSelectIndex="4">
        </CharString>
        <CharString name="glyph02085" fdSelectIndex="4">
        </CharString>
        <CharString name="glyph02086" fdSelectIndex="4">
        </CharString>
        <CharString name="glyph02087" fdSelectIndex="4">
        </CharString>
        <CharString name="glyph02088" fdSelectIndex="4">
        </CharString>
        <CharString name="glyph02089" fdSelectIndex="4">
        </CharString>
        <CharString name="glyph02090" fdSelectIndex="4">
        </CharString>
        <CharString name="glyph02091" fdSelectIndex="4">
        </CharString>
        <CharString name="glyph02092" fdSelectIndex="4">
        </CharString>
        <CharString name="glyph02093" fdSelectIndex="4">
        </CharString>
        <CharString name="glyph02094" fdSelectIndex="4">
        </CharString>
        <CharString name="glyph02095" fdSelectIndex="4">
        </CharString>
        <CharString name="glyph02096" fdSelectIndex="4">
        </CharString>
        <CharString name="glyph02097" fdSelectIndex="4">
        </CharString>
        <CharString name="glyph02098" fdSelectIndex="4">
        </CharString>
        <CharString name="glyph02099" fdSelectIndex="4">
        </CharString>
        <CharString name="glyph02100" fdSelectIndex="4">
        </CharString>
        <CharString name="glyph02101" fdSelectIndex="4">
        </CharString>
        <CharString name="glyph02102" fdSelectIndex="4">
        </CharString>
        <CharString name="glyph02103" fdSelectIndex="4">
        </CharString>
        <CharString name="glyph02104" fdSelectIndex="4">
        </CharString>
        <CharString name="glyph02105" fdSelectIndex="4">
        </CharString>
        <CharString name="glyph02106" fdSelectIndex="4">
        </CharString>
        <CharString name="glyph02107" fdSelectIndex="4">
        </CharString>
        <CharString name="glyph02108" fdSelectIndex="4">
        </CharString>
        <CharString name="glyph02109" fdSelectIndex="4">
        </CharString>
        <CharString name="glyph02110" fdSelectIndex="4">
        </CharString>
        <CharString name="glyph02111" fdSelectIndex="4">
        </CharString>
        <CharString name="glyph02112" fdSelectIndex="4">
        </CharString>
        <CharString name="glyph02113" fdSelectIndex="4">
        </CharString>
        <CharString name="glyph02114" fdSelectIndex="4">
        </CharString>
        <CharString name="glyph02115" fdSelectIndex="4">
        </CharString>
        <CharString name="glyph02116" fdSelectIndex="4">
        </CharString>
        <CharString name="glyph02117" fdSelectIndex="4">
        </CharString>
        <CharString name="glyph02118" fdSelectIndex="4">
        </CharString>
        <CharString name="glyph02119" fdSelectIndex="4">
        </CharString>
        <CharString name="glyph02120" fdSelectIndex="4">
        </CharString>
        <CharString name="glyph02121" fdSelectIndex="4">
        </CharString>
        <CharString name="glyph02122" fdSelectIndex="4">
        </CharString>
        <CharString name="glyph02123" fdSelectIndex="4">
        </CharString>
        <CharString name="glyph02124" fdSelectIndex="4">
        </CharString>
        <CharString name="glyph02125" fdSelectIndex="4">
        </CharString>
        <CharString name="glyph02126" fdSelectIndex="4">
        </CharString>
        <CharString name="glyph02127" fdSelectIndex="4">
        </CharString>
        <CharString name="glyph02128" fdSelectIndex="4">
        </CharString>
        <CharString name="glyph02129" fdSelectIndex="4">
        </CharString>
        <CharString name="glyph02130" fdSelectIndex="4">
        </CharString>
        <CharString name="glyph02131" fdSelectIndex="4">
        </CharString>
        <CharString name="glyph02132" fdSelectIndex="4">
        </CharString>
        <CharString name="glyph02133" fdSelectIndex="4">
        </CharString>
        <CharString name="glyph02134" fdSelectIndex="4">
        </CharString>
        <CharString name="glyph02135" fdSelectIndex="4">
        </CharString>
        <CharString name="glyph02136" fdSelectIndex="4">
        </CharString>
        <CharString name="glyph02137" fdSelectIndex="4">
        </CharString>
        <CharString name="glyph02138" fdSelectIndex="4">
        </CharString>
        <CharString name="glyph02139" fdSelectIndex="4">
        </CharString>
        <CharString name="glyph02140" fdSelectIndex="4">
        </CharString>
        <CharString name="glyph02141" fdSelectIndex="4">
        </CharString>
        <CharString name="glyph02142" fdSelectIndex="4">
        </CharString>
        <CharString name="glyph02143" fdSelectIndex="4">
        </CharString>
        <CharString name="glyph02144" fdSelectIndex="4">
        </CharString>
        <CharString name="glyph02145" fdSelectIndex="4">
        </CharString>
        <CharString name="glyph02146" fdSelectIndex="4">
        </CharString>
        <CharString name="glyph02147" fdSelectIndex="4">
        </CharString>
        <CharString name="glyph02148" fdSelectIndex="4">
        </CharString>
        <CharString name="glyph02149" fdSelectIndex="4">
        </CharString>
        <CharString name="glyph02150" fdSelectIndex="4">
        </CharString>
        <CharString name="glyph02151" fdSelectIndex="4">
        </CharString>
        <CharString name="glyph02152" fdSelectIndex="4">
        </CharString>
        <CharString name="glyph02153" fdSelectIndex="4">
        </CharString>
        <CharString name="glyph02154" fdSelectIndex="4">
        </CharString>
        <CharString name="glyph02155" fdSelectIndex="4">
        </CharString>
        <CharString name="glyph02156" fdSelectIndex="4">
        </CharString>
        <CharString name="glyph02157" fdSelectIndex="4">
        </CharString>
        <CharString name="glyph02158" fdSelectIndex="4">
        </CharString>
        <CharString name="glyph02159" fdSelectIndex="4">
        </CharString>
        <CharString name="glyph02160" fdSelectIndex="4">
        </CharString>
        <CharString name="glyph02161" fdSelectIndex="4">
        </CharString>
        <CharString name="glyph02162" fdSelectIndex="4">
        </CharString>
        <CharString name="glyph02163" fdSelectIndex="4">
        </CharString>
        <CharString name="glyph02164" fdSelectIndex="4">
        </CharString>
        <CharString name="glyph02165" fdSelectIndex="4">
        </CharString>
        <CharString name="glyph02166" fdSelectIndex="4">
        </CharString>
        <CharString name="glyph02167" fdSelectIndex="4">
        </CharString>
        <CharString name="glyph02168" fdSelectIndex="4">
        </CharString>
        <CharString name="glyph02169" fdSelectIndex="4">
        </CharString>
        <CharString name="glyph02170" fdSelectIndex="4">
        </CharString>
        <CharString name="glyph02171" fdSelectIndex="4">
        </CharString>
        <CharString name="glyph02172" fdSelectIndex="4">
        </CharString>
        <CharString name="glyph02173" fdSelectIndex="4">
        </CharString>
        <CharString name="glyph02174" fdSelectIndex="4">
        </CharString>
        <CharString name="glyph02175" fdSelectIndex="4">
        </CharString>
        <CharString name="glyph02176" fdSelectIndex="4">
        </CharString>
        <CharString name="glyph02177" fdSelectIndex="4">
        </CharString>
        <CharString name="glyph02178" fdSelectIndex="4">
        </CharString>
        <CharString name="glyph02179" fdSelectIndex="4">
        </CharString>
        <CharString name="glyph02180" fdSelectIndex="4">
        </CharString>
        <CharString name="glyph02181" fdSelectIndex="4">
        </CharString>
        <CharString name="glyph02182" fdSelectIndex="4">
        </CharString>
        <CharString name="glyph02183" fdSelectIndex="4">
        </CharString>
        <CharString name="glyph02184" fdSelectIndex="4">
        </CharString>
        <CharString name="glyph02185" fdSelectIndex="4">
        </CharString>
        <CharString name="glyph02186" fdSelectIndex="4">
        </CharString>
        <CharString name="glyph02187" fdSelectIndex="4">
        </CharString>
        <CharString name="glyph02188" fdSelectIndex="4">
        </CharString>
        <CharString name="glyph02189" fdSelectIndex="4">
        </CharString>
        <CharString name="glyph02190" fdSelectIndex="4">
        </CharString>
        <CharString name="glyph02191" fdSelectIndex="4">
        </CharString>
        <CharString name="glyph02192" fdSelectIndex="4">
        </CharString>
        <CharString name="glyph02193" fdSelectIndex="4">
        </CharString>
        <CharString name="glyph02194" fdSelectIndex="4">
        </CharString>
        <CharString name="glyph02195" fdSelectIndex="4">
        </CharString>
        <CharString name="glyph02196" fdSelectIndex="4">
        </CharString>
        <CharString name="glyph02197" fdSelectIndex="4">
        </CharString>
        <CharString name="glyph02198" fdSelectIndex="4">
        </CharString>
        <CharString name="glyph02199" fdSelectIndex="4">
        </CharString>
        <CharString name="glyph02200" fdSelectIndex="4">
        </CharString>
        <CharString name="glyph02201" fdSelectIndex="4">
        </CharString>
        <CharString name="glyph02202" fdSelectIndex="4">
        </CharString>
        <CharString name="glyph02203" fdSelectIndex="4">
        </CharString>
        <CharString name="glyph02204" fdSelectIndex="4">
        </CharString>
        <CharString name="glyph02205" fdSelectIndex="4">
        </CharString>
        <CharString name="glyph02206" fdSelectIndex="4">
        </CharString>
        <CharString name="glyph02207" fdSelectIndex="4">
        </CharString>
        <CharString name="glyph02208" fdSelectIndex="4">
        </CharString>
        <CharString name="glyph02209" fdSelectIndex="4">
        </CharString>
        <CharString name="glyph02210" fdSelectIndex="4">
        </CharString>
        <CharString name="glyph02211" fdSelectIndex="4">
        </CharString>
        <CharString name="glyph02212" fdSelectIndex="4">
        </CharString>
        <CharString name="glyph02213" fdSelectIndex="4">
        </CharString>
        <CharString name="glyph02214" fdSelectIndex="4">
        </CharString>
        <CharString name="glyph02215" fdSelectIndex="4">
        </CharString>
        <CharString name="glyph02216" fdSelectIndex="4">
        </CharString>
        <CharString name="glyph02217" fdSelectIndex="4">
        </CharString>
        <CharString name="glyph02218" fdSelectIndex="4">
        </CharString>
        <CharString name="glyph02219" fdSelectIndex="4">
        </CharString>
        <CharString name="glyph02220" fdSelectIndex="4">
        </CharString>
        <CharString name="glyph02221" fdSelectIndex="4">
        </CharString>
        <CharString name="glyph02222" fdSelectIndex="4">
        </CharString>
        <CharString name="glyph02223" fdSelectIndex="4">
        </CharString>
        <CharString name="glyph02224" fdSelectIndex="4">
        </CharString>
        <CharString name="glyph02225" fdSelectIndex="4">
        </CharString>
        <CharString name="glyph02226" fdSelectIndex="4">
        </CharString>
        <CharString name="glyph02227" fdSelectIndex="4">
        </CharString>
        <CharString name="glyph02229" fdSelectIndex="4">
        </CharString>
        <CharString name="glyph02230" fdSelectIndex="4">
        </CharString>
        <CharString name="glyph02231" fdSelectIndex="4">
        </CharString>
        <CharString name="glyph02232" fdSelectIndex="4">
        </CharString>
        <CharString name="glyph02233" fdSelectIndex="4">
        </CharString>
        <CharString name="glyph02234" fdSelectIndex="4">
        </CharString>
        <CharString name="glyph02235" fdSelectIndex="4">
        </CharString>
        <CharString name="glyph02236" fdSelectIndex="4">
        </CharString>
        <CharString name="glyph02237" fdSelectIndex="4">
        </CharString>
        <CharString name="glyph02238" fdSelectIndex="4">
        </CharString>
        <CharString name="glyph02239" fdSelectIndex="4">
        </CharString>
        <CharString name="glyph02240" fdSelectIndex="4">
        </CharString>
        <CharString name="glyph02241" fdSelectIndex="4">
        </CharString>
        <CharString name="glyph02242" fdSelectIndex="4">
        </CharString>
        <CharString name="glyph02243" fdSelectIndex="4">
        </CharString>
        <CharString name="glyph02244" fdSelectIndex="4">
        </CharString>
        <CharString name="glyph02245" fdSelectIndex="4">
        </CharString>
        <CharString name="glyph02246" fdSelectIndex="4">
        </CharString>
        <CharString name="glyph02247" fdSelectIndex="4">
        </CharString>
        <CharString name="glyph02248" fdSelectIndex="4">
        </CharString>
        <CharString name="glyph02249" fdSelectIndex="4">
        </CharString>
        <CharString name="glyph02250" fdSelectIndex="4">
        </CharString>
        <CharString name="glyph02251" fdSelectIndex="4">
        </CharString>
        <CharString name="glyph02252" fdSelectIndex="4">
        </CharString>
        <CharString name="glyph02253" fdSelectIndex="4">
        </CharString>
        <CharString name="glyph02254" fdSelectIndex="4">
        </CharString>
        <CharString name="glyph02255" fdSelectIndex="4">
        </CharString>
        <CharString name="glyph02256" fdSelectIndex="4">
        </CharString>
        <CharString name="glyph02257" fdSelectIndex="4">
        </CharString>
        <CharString name="glyph02258" fdSelectIndex="4">
        </CharString>
        <CharString name="glyph02259" fdSelectIndex="4">
        </CharString>
        <CharString name="glyph02260" fdSelectIndex="4">
        </CharString>
        <CharString name="glyph02261" fdSelectIndex="4">
        </CharString>
        <CharString name="glyph02262" fdSelectIndex="4">
        </CharString>
        <CharString name="glyph02263" fdSelectIndex="4">
        </CharString>
        <CharString name="glyph02264" fdSelectIndex="4">
        </CharString>
        <CharString name="glyph02265" fdSelectIndex="4">
        </CharString>
        <CharString name="glyph02266" fdSelectIndex="4">
        </CharString>
        <CharString name="glyph02267" fdSelectIndex="4">
        </CharString>
        <CharString name="glyph02268" fdSelectIndex="4">
        </CharString>
        <CharString name="glyph02269" fdSelectIndex="4">
        </CharString>
        <CharString name="glyph02270" fdSelectIndex="4">
        </CharString>
        <CharString name="glyph02271" fdSelectIndex="4">
        </CharString>
        <CharString name="glyph02272" fdSelectIndex="4">
        </CharString>
        <CharString name="glyph02273" fdSelectIndex="4">
        </CharString>
        <CharString name="glyph02274" fdSelectIndex="4">
        </CharString>
        <CharString name="glyph02275" fdSelectIndex="4">
        </CharString>
        <CharString name="glyph02276" fdSelectIndex="4">
        </CharString>
        <CharString name="glyph02277" fdSelectIndex="4">
        </CharString>
        <CharString name="glyph02278" fdSelectIndex="4">
        </CharString>
        <CharString name="glyph02279" fdSelectIndex="4">
        </CharString>
        <CharString name="glyph02280" fdSelectIndex="4">
        </CharString>
        <CharString name="glyph02281" fdSelectIndex="4">
        </CharString>
        <CharString name="glyph02282" fdSelectIndex="4">
        </CharString>
        <CharString name="glyph02283" fdSelectIndex="4">
        </CharString>
        <CharString name="glyph02284" fdSelectIndex="4">
        </CharString>
        <CharString name="glyph02285" fdSelectIndex="4">
        </CharString>
        <CharString name="glyph02286" fdSelectIndex="4">
        </CharString>
        <CharString name="glyph02287" fdSelectIndex="4">
        </CharString>
        <CharString name="glyph02288" fdSelectIndex="4">
        </CharString>
        <CharString name="glyph02289" fdSelectIndex="4">
        </CharString>
        <CharString name="glyph02290" fdSelectIndex="4">
        </CharString>
        <CharString name="glyph02291" fdSelectIndex="4">
        </CharString>
        <CharString name="glyph02292" fdSelectIndex="4">
        </CharString>
        <CharString name="glyph02293" fdSelectIndex="4">
        </CharString>
        <CharString name="glyph02294" fdSelectIndex="4">
        </CharString>
        <CharString name="glyph02295" fdSelectIndex="4">
        </CharString>
        <CharString name="glyph02296" fdSelectIndex="4">
        </CharString>
        <CharString name="glyph02297" fdSelectIndex="4">
        </CharString>
        <CharString name="glyph02298" fdSelectIndex="4">
        </CharString>
        <CharString name="glyph02299" fdSelectIndex="4">
        </CharString>
        <CharString name="glyph02300" fdSelectIndex="4">
        </CharString>
        <CharString name="glyph02301" fdSelectIndex="4">
        </CharString>
        <CharString name="glyph02302" fdSelectIndex="4">
        </CharString>
        <CharString name="glyph02303" fdSelectIndex="4">
        </CharString>
        <CharString name="glyph02304" fdSelectIndex="4">
        </CharString>
        <CharString name="glyph02305" fdSelectIndex="4">
        </CharString>
        <CharString name="glyph02306" fdSelectIndex="4">
        </CharString>
        <CharString name="glyph02307" fdSelectIndex="4">
        </CharString>
        <CharString name="glyph02308" fdSelectIndex="4">
        </CharString>
        <CharString name="glyph02309" fdSelectIndex="4">
        </CharString>
        <CharString name="glyph02310" fdSelectIndex="4">
        </CharString>
        <CharString name="glyph02311" fdSelectIndex="4">
        </CharString>
        <CharString name="glyph02312" fdSelectIndex="4">
        </CharString>
        <CharString name="glyph02313" fdSelectIndex="4">
        </CharString>
        <CharString name="glyph02314" fdSelectIndex="4">
        </CharString>
        <CharString name="glyph02315" fdSelectIndex="4">
        </CharString>
        <CharString name="glyph02316" fdSelectIndex="4">
        </CharString>
        <CharString name="glyph02317" fdSelectIndex="4">
        </CharString>
        <CharString name="glyph02320" fdSelectIndex="4">
        </CharString>
        <CharString name="glyph02321" fdSelectIndex="4">
        </CharString>
        <CharString name="glyph02322" fdSelectIndex="4">
        </CharString>
        <CharString name="glyph02323" fdSelectIndex="4">
        </CharString>
        <CharString name="glyph02324" fdSelectIndex="4">
        </CharString>
        <CharString name="glyph02325" fdSelectIndex="4">
        </CharString>
        <CharString name="glyph02326" fdSelectIndex="4">
        </CharString>
        <CharString name="glyph02327" fdSelectIndex="4">
        </CharString>
        <CharString name="glyph02328" fdSelectIndex="4">
        </CharString>
        <CharString name="glyph02329" fdSelectIndex="4">
        </CharString>
        <CharString name="glyph02330" fdSelectIndex="4">
        </CharString>
        <CharString name="glyph02331" fdSelectIndex="4">
        </CharString>
</ttFont>
